<svg width="1920" height="960" viewBox="0 0 1920 960" fill="none" xmlns="http://www.w3.org/2000/svg">
<rect width="1920" height="960" fill="#E8F0FE"/>
<g filter="url(#filter0_d_215_2)">
<path d="M-108.535 -183.064C-85.3701 -182.903 -62.2173 -182.742 -40.1161 -182.742H184.756C206.858 -182.742 230.01 -182.903 253.176 -183.064C315.542 -183.498 377.998 -183.933 420.272 -181.226C574.159 -171.371 680.288 -78.129 693.933 80.3065C697.168 137.239 697.09 205.824 696.998 286.706V286.729C696.982 300.612 696.966 314.857 696.966 329.467V554.339C696.966 568.95 696.982 583.195 696.998 597.077C697.09 677.97 697.168 746.562 693.933 803.5C680.288 961.935 574.159 1055.18 420.272 1065.03C377.998 1067.74 315.542 1067.3 253.176 1066.87C230.01 1066.71 206.858 1066.55 184.756 1066.55H-40.1161C-62.2173 1066.55 -85.3701 1066.71 -108.535 1066.87C-170.901 1067.3 -233.358 1067.74 -275.631 1065.03C-429.518 1055.18 -535.647 961.935 -549.293 803.5C-552.528 746.567 -552.45 677.983 -552.357 597.101V597.077C-552.342 583.195 -552.325 568.95 -552.325 554.339V329.467C-552.325 314.857 -552.342 300.612 -552.357 286.729V286.706C-552.45 205.824 -552.528 137.239 -549.293 80.3065C-535.647 -78.129 -429.518 -171.371 -275.631 -181.226C-233.358 -183.933 -170.901 -183.498 -108.535 -183.064Z" fill="url(#paint0_linear_215_2)"/>
<g filter="url(#filter1_dddddd_215_2)">
<path d="M-349.226 262.355C-349.226 230.536 -323.432 204.742 -291.613 204.742H111.677C192.061 204.742 257.226 269.906 257.226 350.29V618.645C257.226 650.464 231.432 676.258 199.613 676.258H-203.677C-284.061 676.258 -349.226 611.094 -349.226 530.71V262.355Z" fill="url(#paint1_linear_215_2)"/>
<path d="M-291.613 211.565H111.677C188.293 211.565 250.403 273.674 250.403 350.29V618.645C250.403 646.696 227.664 669.435 199.613 669.435H-203.677C-280.293 669.435 -342.403 607.326 -342.403 530.71V262.355C-342.403 234.304 -319.664 211.565 -291.613 211.565Z" stroke="url(#paint2_linear_215_2)" stroke-width="13.6452"/>
</g>
<g filter="url(#filter2_dddddd_215_2)">
<path d="M293.613 371.679C293.613 352.068 302.051 333.406 316.776 320.453L432.32 218.809C456.806 197.268 495.258 214.655 495.258 247.267V634.889C495.258 667.194 457.432 684.691 432.813 663.774L326.75 573.66C305.729 555.8 293.613 529.608 293.613 502.025V371.679Z" fill="url(#paint3_linear_215_2)"/>
<path d="M321.282 325.575L436.826 223.931C456.905 206.268 488.436 220.525 488.436 247.267V634.889C488.436 661.379 457.418 675.727 437.231 658.575L331.167 568.461C311.672 551.897 300.435 527.606 300.435 502.025V371.679C300.435 354.029 308.03 337.233 321.282 325.575Z" stroke="url(#paint4_linear_215_2)" stroke-width="13.6452"/>
</g>
</g>
<path d="M1116.53 443.756C1120.48 443.756 1123.9 444.501 1126.77 445.992C1129.69 447.448 1131.9 449.545 1133.43 452.284C1134.99 455.023 1135.77 458.247 1135.77 461.956C1135.77 465.665 1134.99 468.889 1133.43 471.628C1131.9 474.332 1129.69 476.412 1126.77 477.868C1123.9 479.289 1120.48 480 1116.53 480H1105.25V443.756H1116.53ZM1116.53 476.1C1121.21 476.1 1124.78 474.869 1127.24 472.408C1129.7 469.912 1130.93 466.428 1130.93 461.956C1130.93 457.449 1129.69 453.931 1127.19 451.4C1124.73 448.869 1121.18 447.604 1116.53 447.604H1109.98V476.1H1116.53ZM1138.68 465.648C1138.68 462.736 1139.27 460.188 1140.45 458.004C1141.63 455.785 1143.24 454.069 1145.29 452.856C1147.37 451.643 1149.67 451.036 1152.2 451.036C1154.7 451.036 1156.87 451.573 1158.7 452.648C1160.54 453.723 1161.91 455.075 1162.81 456.704V451.504H1167.6V480H1162.81V474.696C1161.88 476.36 1160.47 477.747 1158.6 478.856C1156.76 479.931 1154.61 480.468 1152.15 480.468C1149.62 480.468 1147.33 479.844 1145.29 478.596C1143.24 477.348 1141.63 475.597 1140.45 473.344C1139.27 471.091 1138.68 468.525 1138.68 465.648ZM1162.81 465.7C1162.81 463.551 1162.38 461.679 1161.51 460.084C1160.64 458.489 1159.47 457.276 1157.98 456.444C1156.52 455.577 1154.91 455.144 1153.14 455.144C1151.37 455.144 1149.76 455.56 1148.3 456.392C1146.85 457.224 1145.69 458.437 1144.82 460.032C1143.95 461.627 1143.52 463.499 1143.52 465.648C1143.52 467.832 1143.95 469.739 1144.82 471.368C1145.69 472.963 1146.85 474.193 1148.3 475.06C1149.76 475.892 1151.37 476.308 1153.14 476.308C1154.91 476.308 1156.52 475.892 1157.98 475.06C1159.47 474.193 1160.64 472.963 1161.51 471.368C1162.38 469.739 1162.81 467.849 1162.81 465.7ZM1179.8 455.404V472.2C1179.8 473.587 1180.1 474.575 1180.69 475.164C1181.28 475.719 1182.3 475.996 1183.76 475.996H1187.24V480H1182.98C1180.34 480 1178.37 479.393 1177.05 478.18C1175.73 476.967 1175.07 474.973 1175.07 472.2V455.404H1171.38V451.504H1175.07V444.328H1179.8V451.504H1187.24V455.404H1179.8ZM1217.41 464.66C1217.41 465.561 1217.36 466.515 1217.26 467.52H1194.48C1194.66 470.328 1195.61 472.529 1197.34 474.124C1199.11 475.684 1201.24 476.464 1203.74 476.464C1205.78 476.464 1207.48 475.996 1208.83 475.06C1210.22 474.089 1211.19 472.807 1211.75 471.212H1216.84C1216.08 473.951 1214.55 476.187 1212.27 477.92C1209.98 479.619 1207.14 480.468 1203.74 480.468C1201.03 480.468 1198.61 479.861 1196.46 478.648C1194.34 477.435 1192.68 475.719 1191.47 473.5C1190.25 471.247 1189.65 468.647 1189.65 465.7C1189.65 462.753 1190.24 460.171 1191.41 457.952C1192.59 455.733 1194.24 454.035 1196.35 452.856C1198.5 451.643 1200.96 451.036 1203.74 451.036C1206.44 451.036 1208.83 451.625 1210.91 452.804C1212.99 453.983 1214.59 455.612 1215.7 457.692C1216.84 459.737 1217.41 462.06 1217.41 464.66ZM1212.53 463.672C1212.53 461.869 1212.13 460.327 1211.33 459.044C1210.53 457.727 1209.44 456.739 1208.05 456.08C1206.7 455.387 1205.19 455.04 1203.53 455.04C1201.14 455.04 1199.09 455.803 1197.39 457.328C1195.73 458.853 1194.78 460.968 1194.53 463.672H1212.53ZM1223.61 480.312C1222.71 480.312 1221.94 480 1221.32 479.376C1220.7 478.752 1220.38 477.989 1220.38 477.088C1220.38 476.187 1220.7 475.424 1221.32 474.8C1221.94 474.176 1222.71 473.864 1223.61 473.864C1224.47 473.864 1225.2 474.176 1225.79 474.8C1226.42 475.424 1226.73 476.187 1226.73 477.088C1226.73 477.989 1226.42 478.752 1225.79 479.376C1225.2 480 1224.47 480.312 1223.61 480.312ZM1223.61 458.056C1222.71 458.056 1221.94 457.744 1221.32 457.12C1220.7 456.496 1220.38 455.733 1220.38 454.832C1220.38 453.931 1220.7 453.168 1221.32 452.544C1221.94 451.92 1222.71 451.608 1223.61 451.608C1224.47 451.608 1225.2 451.92 1225.79 452.544C1226.42 453.168 1226.73 453.931 1226.73 454.832C1226.73 455.733 1226.42 456.496 1225.79 457.12C1225.2 457.744 1224.47 458.056 1223.61 458.056ZM1414.81 476.204C1419.21 472.668 1422.66 469.773 1425.16 467.52C1427.65 465.232 1429.75 462.857 1431.45 460.396C1433.18 457.9 1434.05 455.456 1434.05 453.064C1434.05 450.811 1433.49 449.043 1432.38 447.76C1431.31 446.443 1429.56 445.784 1427.13 445.784C1424.77 445.784 1422.94 446.529 1421.62 448.02C1420.34 449.476 1419.64 451.435 1419.54 453.896H1414.96C1415.1 450.013 1416.28 447.015 1418.5 444.9C1420.72 442.785 1423.58 441.728 1427.08 441.728C1430.65 441.728 1433.48 442.716 1435.56 444.692C1437.67 446.668 1438.73 449.389 1438.73 452.856C1438.73 455.733 1437.86 458.541 1436.13 461.28C1434.43 463.984 1432.49 466.376 1430.3 468.456C1428.12 470.501 1425.33 472.893 1421.93 475.632H1439.82V479.584H1414.81V476.204ZM1446.02 480.312C1445.12 480.312 1444.35 480 1443.73 479.376C1443.11 478.752 1442.79 477.989 1442.79 477.088C1442.79 476.187 1443.11 475.424 1443.73 474.8C1444.35 474.176 1445.12 473.864 1446.02 473.864C1446.88 473.864 1447.61 474.176 1448.2 474.8C1448.83 475.424 1449.14 476.187 1449.14 477.088C1449.14 477.989 1448.83 478.752 1448.2 479.376C1447.61 480 1446.88 480.312 1446.02 480.312ZM1446.02 458.056C1445.12 458.056 1444.35 457.744 1443.73 457.12C1443.11 456.496 1442.79 455.733 1442.79 454.832C1442.79 453.931 1443.11 453.168 1443.73 452.544C1444.35 451.92 1445.12 451.608 1446.02 451.608C1446.88 451.608 1447.61 451.92 1448.2 452.544C1448.83 453.168 1449.14 453.931 1449.14 454.832C1449.14 455.733 1448.83 456.496 1448.2 457.12C1447.61 457.744 1446.88 458.056 1446.02 458.056ZM1453.24 460.812C1453.24 454.849 1454.21 450.204 1456.15 446.876C1458.09 443.513 1461.49 441.832 1466.34 441.832C1471.16 441.832 1474.54 443.513 1476.48 446.876C1478.43 450.204 1479.4 454.849 1479.4 460.812C1479.4 466.879 1478.43 471.593 1476.48 474.956C1474.54 478.319 1471.16 480 1466.34 480C1461.49 480 1458.09 478.319 1456.15 474.956C1454.21 471.593 1453.24 466.879 1453.24 460.812ZM1474.72 460.812C1474.72 457.796 1474.51 455.248 1474.09 453.168C1473.71 451.053 1472.9 449.355 1471.65 448.072C1470.43 446.789 1468.67 446.148 1466.34 446.148C1463.99 446.148 1462.18 446.789 1460.94 448.072C1459.72 449.355 1458.91 451.053 1458.49 453.168C1458.11 455.248 1457.92 457.796 1457.92 460.812C1457.92 463.932 1458.11 466.549 1458.49 468.664C1458.91 470.779 1459.72 472.477 1460.94 473.76C1462.18 475.043 1463.99 475.684 1466.34 475.684C1468.67 475.684 1470.43 475.043 1471.65 473.76C1472.9 472.477 1473.71 470.779 1474.09 468.664C1474.51 466.549 1474.72 463.932 1474.72 460.812ZM1484.33 460.812C1484.33 454.849 1485.3 450.204 1487.24 446.876C1489.19 443.513 1492.58 441.832 1497.44 441.832C1502.25 441.832 1505.63 443.513 1507.58 446.876C1509.52 450.204 1510.49 454.849 1510.49 460.812C1510.49 466.879 1509.52 471.593 1507.58 474.956C1505.63 478.319 1502.25 480 1497.44 480C1492.58 480 1489.19 478.319 1487.24 474.956C1485.3 471.593 1484.33 466.879 1484.33 460.812ZM1505.81 460.812C1505.81 457.796 1505.6 455.248 1505.18 453.168C1504.8 451.053 1503.99 449.355 1502.74 448.072C1501.53 446.789 1499.76 446.148 1497.44 446.148C1495.08 446.148 1493.28 446.789 1492.03 448.072C1490.81 449.355 1490 451.053 1489.58 453.168C1489.2 455.248 1489.01 457.796 1489.01 460.812C1489.01 463.932 1489.2 466.549 1489.58 468.664C1490 470.779 1490.81 472.477 1492.03 473.76C1493.28 475.043 1495.08 475.684 1497.44 475.684C1499.76 475.684 1501.53 475.043 1502.74 473.76C1503.99 472.477 1504.8 470.779 1505.18 468.664C1505.6 466.549 1505.81 463.932 1505.81 460.812ZM1533.24 456.756C1534.18 455.127 1535.56 453.775 1537.4 452.7C1539.27 451.591 1541.44 451.036 1543.9 451.036C1546.43 451.036 1548.72 451.643 1550.76 452.856C1552.84 454.069 1554.47 455.785 1555.65 458.004C1556.83 460.188 1557.42 462.736 1557.42 465.648C1557.42 468.525 1556.83 471.091 1555.65 473.344C1554.47 475.597 1552.84 477.348 1550.76 478.596C1548.72 479.844 1546.43 480.468 1543.9 480.468C1541.47 480.468 1539.32 479.931 1537.45 478.856C1535.61 477.747 1534.21 476.377 1533.24 474.748V493.52H1528.51V451.504H1533.24V456.756ZM1552.58 465.648C1552.58 463.499 1552.15 461.627 1551.28 460.032C1550.42 458.437 1549.24 457.224 1547.75 456.392C1546.29 455.56 1544.68 455.144 1542.91 455.144C1541.18 455.144 1539.57 455.577 1538.08 456.444C1536.62 457.276 1535.44 458.507 1534.54 460.136C1533.67 461.731 1533.24 463.585 1533.24 465.7C1533.24 467.849 1533.67 469.739 1534.54 471.368C1535.44 472.963 1536.62 474.193 1538.08 475.06C1539.57 475.892 1541.18 476.308 1542.91 476.308C1544.68 476.308 1546.29 475.892 1547.75 475.06C1549.24 474.193 1550.42 472.963 1551.28 471.368C1552.15 469.739 1552.58 467.832 1552.58 465.648ZM1596.36 450.984C1598.58 450.984 1600.55 451.452 1602.28 452.388C1604.02 453.289 1605.39 454.659 1606.39 456.496C1607.4 458.333 1607.9 460.569 1607.9 463.204V480H1603.22V463.88C1603.22 461.037 1602.51 458.871 1601.09 457.38C1599.7 455.855 1597.81 455.092 1595.42 455.092C1592.96 455.092 1591 455.889 1589.54 457.484C1588.09 459.044 1587.36 461.315 1587.36 464.296V480H1582.68V463.88C1582.68 461.037 1581.97 458.871 1580.55 457.38C1579.16 455.855 1577.27 455.092 1574.88 455.092C1572.42 455.092 1570.46 455.889 1569 457.484C1567.55 459.044 1566.82 461.315 1566.82 464.296V480H1562.09V451.504H1566.82V455.612C1567.76 454.121 1569 452.977 1570.56 452.18C1572.16 451.383 1573.91 450.984 1575.82 450.984C1578.21 450.984 1580.32 451.521 1582.16 452.596C1584 453.671 1585.37 455.248 1586.27 457.328C1587.07 455.317 1588.38 453.757 1590.22 452.648C1592.06 451.539 1594.1 450.984 1596.36 450.984ZM1646.17 458.94V462.944H1625.42V458.94H1646.17ZM1664.91 451.868C1665.15 448.679 1666.38 446.183 1668.6 444.38C1670.82 442.577 1673.69 441.676 1677.23 441.676C1679.59 441.676 1681.62 442.109 1683.31 442.976C1685.05 443.808 1686.35 444.952 1687.21 446.408C1688.12 447.864 1688.57 449.511 1688.57 451.348C1688.57 453.497 1687.94 455.352 1686.69 456.912C1685.48 458.472 1683.89 459.477 1681.91 459.928V460.188C1684.16 460.743 1685.95 461.835 1687.27 463.464C1688.58 465.093 1689.24 467.225 1689.24 469.86C1689.24 471.836 1688.79 473.621 1687.89 475.216C1686.99 476.776 1685.64 478.007 1683.83 478.908C1682.03 479.809 1679.86 480.26 1677.33 480.26C1673.66 480.26 1670.64 479.307 1668.29 477.4C1665.93 475.459 1664.61 472.72 1664.33 469.184H1668.91C1669.15 471.264 1670 472.963 1671.46 474.28C1672.91 475.597 1674.86 476.256 1677.28 476.256C1679.71 476.256 1681.55 475.632 1682.79 474.384C1684.08 473.101 1684.72 471.455 1684.72 469.444C1684.72 466.844 1683.85 464.972 1682.12 463.828C1680.38 462.684 1677.77 462.112 1674.27 462.112H1673.07V458.16H1674.32C1677.51 458.125 1679.92 457.605 1681.55 456.6C1683.18 455.56 1683.99 453.965 1683.99 451.816C1683.99 449.979 1683.38 448.505 1682.17 447.396C1680.99 446.287 1679.29 445.732 1677.07 445.732C1674.92 445.732 1673.19 446.287 1671.87 447.396C1670.56 448.505 1669.78 449.996 1669.53 451.868H1664.91ZM1696.36 480.312C1695.46 480.312 1694.69 480 1694.07 479.376C1693.45 478.752 1693.13 477.989 1693.13 477.088C1693.13 476.187 1693.45 475.424 1694.07 474.8C1694.69 474.176 1695.46 473.864 1696.36 473.864C1697.23 473.864 1697.95 474.176 1698.54 474.8C1699.17 475.424 1699.48 476.187 1699.48 477.088C1699.48 477.989 1699.17 478.752 1698.54 479.376C1697.95 480 1697.23 480.312 1696.36 480.312ZM1696.36 458.056C1695.46 458.056 1694.69 457.744 1694.07 457.12C1693.45 456.496 1693.13 455.733 1693.13 454.832C1693.13 453.931 1693.45 453.168 1694.07 452.544C1694.69 451.92 1695.46 451.608 1696.36 451.608C1697.23 451.608 1697.95 451.92 1698.54 452.544C1699.17 453.168 1699.48 453.931 1699.48 454.832C1699.48 455.733 1699.17 456.496 1698.54 457.12C1697.95 457.744 1697.23 458.056 1696.36 458.056ZM1703.58 460.812C1703.58 454.849 1704.55 450.204 1706.49 446.876C1708.43 443.513 1711.83 441.832 1716.69 441.832C1721.5 441.832 1724.88 443.513 1726.83 446.876C1728.77 450.204 1729.74 454.849 1729.74 460.812C1729.74 466.879 1728.77 471.593 1726.83 474.956C1724.88 478.319 1721.5 480 1716.69 480C1711.83 480 1708.43 478.319 1706.49 474.956C1704.55 471.593 1703.58 466.879 1703.58 460.812ZM1725.06 460.812C1725.06 457.796 1724.85 455.248 1724.43 453.168C1724.05 451.053 1723.24 449.355 1721.99 448.072C1720.78 446.789 1719.01 446.148 1716.69 446.148C1714.33 446.148 1712.53 446.789 1711.28 448.072C1710.06 449.355 1709.25 451.053 1708.83 453.168C1708.45 455.248 1708.26 457.796 1708.26 460.812C1708.26 463.932 1708.45 466.549 1708.83 468.664C1709.25 470.779 1710.06 472.477 1711.28 473.76C1712.53 475.043 1714.33 475.684 1716.69 475.684C1719.01 475.684 1720.78 475.043 1721.99 473.76C1723.24 472.477 1724.05 470.779 1724.43 468.664C1724.85 466.549 1725.06 463.932 1725.06 460.812ZM1734.67 460.812C1734.67 454.849 1735.64 450.204 1737.59 446.876C1739.53 443.513 1742.92 441.832 1747.78 441.832C1752.6 441.832 1755.98 443.513 1757.92 446.876C1759.86 450.204 1760.83 454.849 1760.83 460.812C1760.83 466.879 1759.86 471.593 1757.92 474.956C1755.98 478.319 1752.6 480 1747.78 480C1742.92 480 1739.53 478.319 1737.59 474.956C1735.64 471.593 1734.67 466.879 1734.67 460.812ZM1756.15 460.812C1756.15 457.796 1755.94 455.248 1755.53 453.168C1755.14 451.053 1754.33 449.355 1753.08 448.072C1751.87 446.789 1750.1 446.148 1747.78 446.148C1745.42 446.148 1743.62 446.789 1742.37 448.072C1741.16 449.355 1740.34 451.053 1739.93 453.168C1739.54 455.248 1739.35 457.796 1739.35 460.812C1739.35 463.932 1739.54 466.549 1739.93 468.664C1740.34 470.779 1741.16 472.477 1742.37 473.76C1743.62 475.043 1745.42 475.684 1747.78 475.684C1750.1 475.684 1751.87 475.043 1753.08 473.76C1754.33 472.477 1755.14 470.779 1755.53 468.664C1755.94 466.549 1756.15 463.932 1756.15 460.812ZM1783.58 456.756C1784.52 455.127 1785.9 453.775 1787.74 452.7C1789.61 451.591 1791.78 451.036 1794.24 451.036C1796.77 451.036 1799.06 451.643 1801.11 452.856C1803.19 454.069 1804.81 455.785 1805.99 458.004C1807.17 460.188 1807.76 462.736 1807.76 465.648C1807.76 468.525 1807.17 471.091 1805.99 473.344C1804.81 475.597 1803.19 477.348 1801.11 478.596C1799.06 479.844 1796.77 480.468 1794.24 480.468C1791.81 480.468 1789.67 479.931 1787.79 478.856C1785.96 477.747 1784.55 476.377 1783.58 474.748V493.52H1778.85V451.504H1783.58V456.756ZM1802.93 465.648C1802.93 463.499 1802.49 461.627 1801.63 460.032C1800.76 458.437 1799.58 457.224 1798.09 456.392C1796.63 455.56 1795.02 455.144 1793.25 455.144C1791.52 455.144 1789.91 455.577 1788.42 456.444C1786.96 457.276 1785.78 458.507 1784.88 460.136C1784.01 461.731 1783.58 463.585 1783.58 465.7C1783.58 467.849 1784.01 469.739 1784.88 471.368C1785.78 472.963 1786.96 474.193 1788.42 475.06C1789.91 475.892 1791.52 476.308 1793.25 476.308C1795.02 476.308 1796.63 475.892 1798.09 475.06C1799.58 474.193 1800.76 472.963 1801.63 471.368C1802.49 469.739 1802.93 467.832 1802.93 465.648ZM1846.7 450.984C1848.92 450.984 1850.89 451.452 1852.63 452.388C1854.36 453.289 1855.73 454.659 1856.73 456.496C1857.74 458.333 1858.24 460.569 1858.24 463.204V480H1853.56V463.88C1853.56 461.037 1852.85 458.871 1851.43 457.38C1850.04 455.855 1848.15 455.092 1845.76 455.092C1843.3 455.092 1841.34 455.889 1839.89 457.484C1838.43 459.044 1837.7 461.315 1837.7 464.296V480H1833.02V463.88C1833.02 461.037 1832.31 458.871 1830.89 457.38C1829.5 455.855 1827.61 455.092 1825.22 455.092C1822.76 455.092 1820.8 455.889 1819.35 457.484C1817.89 459.044 1817.16 461.315 1817.16 464.296V480H1812.43V451.504H1817.16V455.612C1818.1 454.121 1819.35 452.977 1820.91 452.18C1822.5 451.383 1824.25 450.984 1826.16 450.984C1828.55 450.984 1830.66 451.521 1832.5 452.596C1834.34 453.671 1835.71 455.248 1836.61 457.328C1837.41 455.317 1838.72 453.757 1840.56 452.648C1842.4 451.539 1844.44 450.984 1846.7 450.984ZM1557.21 521.756V548.536C1557.21 551.517 1556.29 553.909 1554.45 555.712C1552.61 557.48 1550.19 558.364 1547.17 558.364C1544.12 558.364 1541.68 557.463 1539.84 555.66C1538 553.823 1537.08 551.327 1537.08 548.172H1541.81C1541.85 549.94 1542.3 551.379 1543.17 552.488C1544.07 553.597 1545.4 554.152 1547.17 554.152C1548.94 554.152 1550.26 553.632 1551.12 552.592C1551.99 551.517 1552.42 550.165 1552.42 548.536V521.756H1557.21ZM1590.24 529.504V558H1585.51V553.788C1584.61 555.244 1583.34 556.388 1581.71 557.22C1580.12 558.017 1578.35 558.416 1576.41 558.416C1574.19 558.416 1572.2 557.965 1570.43 557.064C1568.66 556.128 1567.26 554.741 1566.22 552.904C1565.21 551.067 1564.71 548.831 1564.71 546.196V529.504H1569.39V545.572C1569.39 548.38 1570.1 550.547 1571.52 552.072C1572.94 553.563 1574.88 554.308 1577.34 554.308C1579.88 554.308 1581.87 553.528 1583.32 551.968C1584.78 550.408 1585.51 548.137 1585.51 545.156V529.504H1590.24ZM1610.55 528.984C1614.02 528.984 1616.83 530.041 1618.98 532.156C1621.13 534.236 1622.2 537.252 1622.2 541.204V558H1617.52V541.88C1617.52 539.037 1616.81 536.871 1615.39 535.38C1613.97 533.855 1612.03 533.092 1609.57 533.092C1607.07 533.092 1605.08 533.872 1603.59 535.432C1602.13 536.992 1601.4 539.263 1601.4 542.244V558H1596.67V529.504H1601.4V533.56C1602.34 532.104 1603.6 530.977 1605.2 530.18C1606.83 529.383 1608.61 528.984 1610.55 528.984ZM1654.37 542.66C1654.37 543.561 1654.32 544.515 1654.22 545.52H1631.44C1631.61 548.328 1632.57 550.529 1634.3 552.124C1636.07 553.684 1638.2 554.464 1640.7 554.464C1642.74 554.464 1644.44 553.996 1645.79 553.06C1647.18 552.089 1648.15 550.807 1648.7 549.212H1653.8C1653.04 551.951 1651.51 554.187 1649.22 555.92C1646.94 557.619 1644.09 558.468 1640.7 558.468C1637.99 558.468 1635.57 557.861 1633.42 556.648C1631.3 555.435 1629.64 553.719 1628.42 551.5C1627.21 549.247 1626.6 546.647 1626.6 543.7C1626.6 540.753 1627.19 538.171 1628.37 535.952C1629.55 533.733 1631.2 532.035 1633.31 530.856C1635.46 529.643 1637.92 529.036 1640.7 529.036C1643.4 529.036 1645.79 529.625 1647.87 530.804C1649.95 531.983 1651.55 533.612 1652.66 535.692C1653.8 537.737 1654.37 540.06 1654.37 542.66ZM1649.48 541.672C1649.48 539.869 1649.09 538.327 1648.29 537.044C1647.49 535.727 1646.4 534.739 1645.01 534.08C1643.66 533.387 1642.15 533.04 1640.49 533.04C1638.1 533.04 1636.05 533.803 1634.35 535.328C1632.69 536.853 1631.73 538.968 1631.49 541.672H1649.48ZM1670.01 554.204C1674.41 550.668 1677.86 547.773 1680.36 545.52C1682.85 543.232 1684.95 540.857 1686.65 538.396C1688.38 535.9 1689.25 533.456 1689.25 531.064C1689.25 528.811 1688.69 527.043 1687.59 525.76C1686.51 524.443 1684.76 523.784 1682.33 523.784C1679.98 523.784 1678.14 524.529 1676.82 526.02C1675.54 527.476 1674.85 529.435 1674.74 531.896H1670.17C1670.3 528.013 1671.48 525.015 1673.7 522.9C1675.92 520.785 1678.78 519.728 1682.28 519.728C1685.85 519.728 1688.68 520.716 1690.76 522.692C1692.87 524.668 1693.93 527.389 1693.93 530.856C1693.93 533.733 1693.06 536.541 1691.33 539.28C1689.63 541.984 1687.69 544.376 1685.51 546.456C1683.32 548.501 1680.53 550.893 1677.13 553.632H1695.02V557.584H1670.01V554.204ZM1722.07 524.096L1707.62 558H1702.83L1717.5 524.564H1697.42V520.508H1722.07V524.096ZM1731.43 551.448L1725.6 565.436H1722.43L1726.23 551.448H1731.43ZM1746.24 554.204C1750.64 550.668 1754.09 547.773 1756.59 545.52C1759.08 543.232 1761.18 540.857 1762.88 538.396C1764.61 535.9 1765.48 533.456 1765.48 531.064C1765.48 528.811 1764.92 527.043 1763.81 525.76C1762.74 524.443 1760.99 523.784 1758.56 523.784C1756.2 523.784 1754.37 524.529 1753.05 526.02C1751.77 527.476 1751.07 529.435 1750.97 531.896H1746.39C1746.53 528.013 1747.71 525.015 1749.93 522.9C1752.15 520.785 1755.01 519.728 1758.51 519.728C1762.08 519.728 1764.91 520.716 1766.99 522.692C1769.1 524.668 1770.16 527.389 1770.16 530.856C1770.16 533.733 1769.29 536.541 1767.56 539.28C1765.86 541.984 1763.92 544.376 1761.73 546.456C1759.55 548.501 1756.76 550.893 1753.36 553.632H1771.25V557.584H1746.24V554.204ZM1775.16 538.812C1775.16 532.849 1776.13 528.204 1778.07 524.876C1780.01 521.513 1783.41 519.832 1788.26 519.832C1793.08 519.832 1796.46 521.513 1798.4 524.876C1800.35 528.204 1801.32 532.849 1801.32 538.812C1801.32 544.879 1800.35 549.593 1798.4 552.956C1796.46 556.319 1793.08 558 1788.26 558C1783.41 558 1780.01 556.319 1778.07 552.956C1776.13 549.593 1775.16 544.879 1775.16 538.812ZM1796.64 538.812C1796.64 535.796 1796.43 533.248 1796.01 531.168C1795.63 529.053 1794.82 527.355 1793.57 526.072C1792.36 524.789 1790.59 524.148 1788.26 524.148C1785.91 524.148 1784.1 524.789 1782.86 526.072C1781.64 527.355 1780.83 529.053 1780.41 531.168C1780.03 533.248 1779.84 535.796 1779.84 538.812C1779.84 541.932 1780.03 544.549 1780.41 546.664C1780.83 548.779 1781.64 550.477 1782.86 551.76C1784.1 553.043 1785.91 553.684 1788.26 553.684C1790.59 553.684 1792.36 553.043 1793.57 551.76C1794.82 550.477 1795.63 548.779 1796.01 546.664C1796.43 544.549 1796.64 541.932 1796.64 538.812ZM1805.68 554.204C1810.08 550.668 1813.53 547.773 1816.03 545.52C1818.52 543.232 1820.62 540.857 1822.32 538.396C1824.05 535.9 1824.92 533.456 1824.92 531.064C1824.92 528.811 1824.37 527.043 1823.26 525.76C1822.18 524.443 1820.43 523.784 1818 523.784C1815.65 523.784 1813.81 524.529 1812.49 526.02C1811.21 527.476 1810.52 529.435 1810.41 531.896H1805.84C1805.98 528.013 1807.15 525.015 1809.37 522.9C1811.59 520.785 1814.45 519.728 1817.95 519.728C1821.52 519.728 1824.35 520.716 1826.43 522.692C1828.54 524.668 1829.6 527.389 1829.6 530.856C1829.6 533.733 1828.73 536.541 1827 539.28C1825.3 541.984 1823.36 544.376 1821.18 546.456C1818.99 548.501 1816.2 550.893 1812.8 553.632H1830.69V557.584H1805.68V554.204ZM1834.5 529.868C1834.74 526.679 1835.97 524.183 1838.19 522.38C1840.41 520.577 1843.29 519.676 1846.82 519.676C1849.18 519.676 1851.21 520.109 1852.91 520.976C1854.64 521.808 1855.94 522.952 1856.81 524.408C1857.71 525.864 1858.16 527.511 1858.16 529.348C1858.16 531.497 1857.53 533.352 1856.29 534.912C1855.07 536.472 1853.48 537.477 1851.5 537.928V538.188C1853.76 538.743 1855.54 539.835 1856.86 541.464C1858.18 543.093 1858.83 545.225 1858.83 547.86C1858.83 549.836 1858.38 551.621 1857.48 553.216C1856.58 554.776 1855.23 556.007 1853.43 556.908C1851.62 557.809 1849.46 558.26 1846.93 558.26C1843.25 558.26 1840.24 557.307 1837.88 555.4C1835.52 553.459 1834.2 550.72 1833.93 547.184H1838.5C1838.75 549.264 1839.59 550.963 1841.05 552.28C1842.51 553.597 1844.45 554.256 1846.87 554.256C1849.3 554.256 1851.14 553.632 1852.39 552.384C1853.67 551.101 1854.31 549.455 1854.31 547.444C1854.31 544.844 1853.44 542.972 1851.71 541.828C1849.98 540.684 1847.36 540.112 1843.86 540.112H1842.66V536.16H1843.91C1847.1 536.125 1849.51 535.605 1851.14 534.6C1852.77 533.56 1853.58 531.965 1853.58 529.816C1853.58 527.979 1852.98 526.505 1851.76 525.396C1850.58 524.287 1848.89 523.732 1846.67 523.732C1844.52 523.732 1842.78 524.287 1841.47 525.396C1840.15 526.505 1839.37 527.996 1839.13 529.868H1834.5ZM1143.27 678.016V714H1138.53V687.168L1126.57 714H1123.25L1111.23 687.116V714H1106.5V678.016H1111.6L1124.91 707.76L1138.22 678.016H1143.27ZM1175.73 698.66C1175.73 699.561 1175.68 700.515 1175.57 701.52H1152.8C1152.97 704.328 1153.93 706.529 1155.66 708.124C1157.43 709.684 1159.56 710.464 1162.05 710.464C1164.1 710.464 1165.8 709.996 1167.15 709.06C1168.54 708.089 1169.51 706.807 1170.06 705.212H1175.16C1174.4 707.951 1172.87 710.187 1170.58 711.92C1168.29 713.619 1165.45 714.468 1162.05 714.468C1159.35 714.468 1156.92 713.861 1154.77 712.648C1152.66 711.435 1151 709.719 1149.78 707.5C1148.57 705.247 1147.96 702.647 1147.96 699.7C1147.96 696.753 1148.55 694.171 1149.73 691.952C1150.91 689.733 1152.56 688.035 1154.67 686.856C1156.82 685.643 1159.28 685.036 1162.05 685.036C1164.76 685.036 1167.15 685.625 1169.23 686.804C1171.31 687.983 1172.91 689.612 1174.01 691.692C1175.16 693.737 1175.73 696.06 1175.73 698.66ZM1170.84 697.672C1170.84 695.869 1170.44 694.327 1169.65 693.044C1168.85 691.727 1167.76 690.739 1166.37 690.08C1165.02 689.387 1163.51 689.04 1161.85 689.04C1159.45 689.04 1157.41 689.803 1155.71 691.328C1154.05 692.853 1153.09 694.968 1152.85 697.672H1170.84ZM1206.42 698.66C1206.42 699.561 1206.36 700.515 1206.26 701.52H1183.48C1183.66 704.328 1184.61 706.529 1186.34 708.124C1188.11 709.684 1190.24 710.464 1192.74 710.464C1194.79 710.464 1196.48 709.996 1197.84 709.06C1199.22 708.089 1200.19 706.807 1200.75 705.212H1205.84C1205.08 707.951 1203.56 710.187 1201.27 711.92C1198.98 713.619 1196.14 714.468 1192.74 714.468C1190.04 714.468 1187.61 713.861 1185.46 712.648C1183.35 711.435 1181.68 709.719 1180.47 707.5C1179.26 705.247 1178.65 702.647 1178.65 699.7C1178.65 696.753 1179.24 694.171 1180.42 691.952C1181.6 689.733 1183.24 688.035 1185.36 686.856C1187.51 685.643 1189.97 685.036 1192.74 685.036C1195.44 685.036 1197.84 685.625 1199.92 686.804C1202 687.983 1203.59 689.612 1204.7 691.692C1205.84 693.737 1206.42 696.06 1206.42 698.66ZM1201.53 697.672C1201.53 695.869 1201.13 694.327 1200.33 693.044C1199.54 691.727 1198.44 690.739 1197.06 690.08C1195.7 689.387 1194.2 689.04 1192.53 689.04C1190.14 689.04 1188.1 689.803 1186.4 691.328C1184.73 692.853 1183.78 694.968 1183.54 697.672H1201.53ZM1216.87 689.404V706.2C1216.87 707.587 1217.17 708.575 1217.76 709.164C1218.35 709.719 1219.37 709.996 1220.83 709.996H1224.31V714H1220.05C1217.41 714 1215.44 713.393 1214.12 712.18C1212.8 710.967 1212.14 708.973 1212.14 706.2V689.404H1208.45V685.504H1212.14V678.328H1216.87V685.504H1224.31V689.404H1216.87ZM1230.93 680.876C1230.03 680.876 1229.26 680.564 1228.64 679.94C1228.02 679.316 1227.7 678.553 1227.7 677.652C1227.7 676.751 1228.02 675.988 1228.64 675.364C1229.26 674.74 1230.03 674.428 1230.93 674.428C1231.79 674.428 1232.52 674.74 1233.11 675.364C1233.74 675.988 1234.05 676.751 1234.05 677.652C1234.05 678.553 1233.74 679.316 1233.11 679.94C1232.52 680.564 1231.79 680.876 1230.93 680.876ZM1233.22 685.504V714H1228.48V685.504H1233.22ZM1253.6 684.984C1257.07 684.984 1259.88 686.041 1262.03 688.156C1264.18 690.236 1265.25 693.252 1265.25 697.204V714H1260.57V697.88C1260.57 695.037 1259.86 692.871 1258.44 691.38C1257.02 689.855 1255.08 689.092 1252.62 689.092C1250.12 689.092 1248.13 689.872 1246.64 691.432C1245.18 692.992 1244.45 695.263 1244.45 698.244V714H1239.72V685.504H1244.45V689.56C1245.39 688.104 1246.65 686.977 1248.25 686.18C1249.88 685.383 1251.66 684.984 1253.6 684.984ZM1283.17 685.036C1285.64 685.036 1287.79 685.573 1289.62 686.648C1291.49 687.723 1292.88 689.075 1293.78 690.704V685.504H1298.57V714.624C1298.57 717.224 1298.01 719.529 1296.9 721.54C1295.79 723.585 1294.2 725.18 1292.12 726.324C1290.07 727.468 1287.68 728.04 1284.94 728.04C1281.2 728.04 1278.08 727.156 1275.58 725.388C1273.09 723.62 1271.61 721.211 1271.16 718.16H1275.84C1276.36 719.893 1277.44 721.28 1279.07 722.32C1280.7 723.395 1282.65 723.932 1284.94 723.932C1287.54 723.932 1289.66 723.117 1291.29 721.488C1292.95 719.859 1293.78 717.571 1293.78 714.624V708.644C1292.85 710.308 1291.46 711.695 1289.62 712.804C1287.79 713.913 1285.64 714.468 1283.17 714.468C1280.64 714.468 1278.34 713.844 1276.26 712.596C1274.21 711.348 1272.6 709.597 1271.42 707.344C1270.24 705.091 1269.65 702.525 1269.65 699.648C1269.65 696.736 1270.24 694.188 1271.42 692.004C1272.6 689.785 1274.21 688.069 1276.26 686.856C1278.34 685.643 1280.64 685.036 1283.17 685.036ZM1293.78 699.7C1293.78 697.551 1293.35 695.679 1292.48 694.084C1291.62 692.489 1290.44 691.276 1288.95 690.444C1287.49 689.577 1285.88 689.144 1284.11 689.144C1282.34 689.144 1280.73 689.56 1279.27 690.392C1277.82 691.224 1276.66 692.437 1275.79 694.032C1274.92 695.627 1274.49 697.499 1274.49 699.648C1274.49 701.832 1274.92 703.739 1275.79 705.368C1276.66 706.963 1277.82 708.193 1279.27 709.06C1280.73 709.892 1282.34 710.308 1284.11 710.308C1285.88 710.308 1287.49 709.892 1288.95 709.06C1290.44 708.193 1291.62 706.963 1292.48 705.368C1293.35 703.739 1293.78 701.849 1293.78 699.7ZM1322.04 677.756V714H1317.31V677.756H1322.04ZM1339.83 677.756C1343.78 677.756 1347.19 678.501 1350.07 679.992C1352.98 681.448 1355.2 683.545 1356.73 686.284C1358.29 689.023 1359.07 692.247 1359.07 695.956C1359.07 699.665 1358.29 702.889 1356.73 705.628C1355.2 708.332 1352.98 710.412 1350.07 711.868C1347.19 713.289 1343.78 714 1339.83 714H1328.54V677.756H1339.83ZM1339.83 710.1C1344.51 710.1 1348.08 708.869 1350.54 706.408C1353 703.912 1354.23 700.428 1354.23 695.956C1354.23 691.449 1352.98 687.931 1350.49 685.4C1348.03 682.869 1344.47 681.604 1339.83 681.604H1333.28V710.1H1339.83ZM1365.26 714.312C1364.36 714.312 1363.59 714 1362.97 713.376C1362.34 712.752 1362.03 711.989 1362.03 711.088C1362.03 710.187 1362.34 709.424 1362.97 708.8C1363.59 708.176 1364.36 707.864 1365.26 707.864C1366.12 707.864 1366.85 708.176 1367.44 708.8C1368.06 709.424 1368.38 710.187 1368.38 711.088C1368.38 711.989 1368.06 712.752 1367.44 713.376C1366.85 714 1366.12 714.312 1365.26 714.312ZM1365.26 692.056C1364.36 692.056 1363.59 691.744 1362.97 691.12C1362.34 690.496 1362.03 689.733 1362.03 688.832C1362.03 687.931 1362.34 687.168 1362.97 686.544C1363.59 685.92 1364.36 685.608 1365.26 685.608C1366.12 685.608 1366.85 685.92 1367.44 686.544C1368.06 687.168 1368.38 687.931 1368.38 688.832C1368.38 689.733 1368.06 690.496 1367.44 691.12C1366.85 691.744 1366.12 692.056 1365.26 692.056ZM1577.98 685.348C1577.22 681.5 1574.85 679.576 1570.86 679.576C1567.78 679.576 1565.47 680.772 1563.94 683.164C1562.42 685.521 1561.67 689.421 1561.71 694.864C1562.51 693.061 1563.82 691.657 1565.66 690.652C1567.53 689.612 1569.61 689.092 1571.9 689.092C1575.47 689.092 1578.31 690.201 1580.43 692.42C1582.58 694.639 1583.65 697.707 1583.65 701.624C1583.65 703.981 1583.18 706.096 1582.25 707.968C1581.35 709.84 1579.96 711.331 1578.09 712.44C1576.25 713.549 1574.02 714.104 1571.38 714.104C1567.81 714.104 1565.02 713.307 1563.01 711.712C1561 710.117 1559.59 707.916 1558.8 705.108C1558 702.3 1557.6 698.833 1557.6 694.708C1557.6 681.985 1562.04 675.624 1570.91 675.624C1574.31 675.624 1576.98 676.543 1578.92 678.38C1580.86 680.217 1582.01 682.54 1582.35 685.348H1577.98ZM1570.91 693.096C1569.42 693.096 1568.02 693.408 1566.7 694.032C1565.38 694.621 1564.31 695.54 1563.48 696.788C1562.68 698.001 1562.28 699.492 1562.28 701.26C1562.28 703.895 1563.04 706.044 1564.57 707.708C1566.09 709.337 1568.28 710.152 1571.12 710.152C1573.55 710.152 1575.47 709.407 1576.89 707.916C1578.35 706.391 1579.08 704.345 1579.08 701.78C1579.08 699.076 1578.38 696.961 1577 695.436C1575.61 693.876 1573.58 693.096 1570.91 693.096ZM1612.45 680.512H1594.2V692.368C1594.99 691.259 1596.17 690.357 1597.73 689.664C1599.29 688.936 1600.97 688.572 1602.78 688.572C1605.65 688.572 1607.99 689.179 1609.8 690.392C1611.6 691.571 1612.88 693.113 1613.64 695.02C1614.44 696.892 1614.84 698.885 1614.84 701C1614.84 703.496 1614.37 705.732 1613.44 707.708C1612.5 709.684 1611.06 711.244 1609.12 712.388C1607.21 713.532 1604.84 714.104 1602 714.104C1598.36 714.104 1595.41 713.168 1593.16 711.296C1590.9 709.424 1589.53 706.928 1589.05 703.808H1593.68C1594.13 705.784 1595.08 707.327 1596.54 708.436C1597.99 709.545 1599.83 710.1 1602.05 710.1C1604.79 710.1 1606.85 709.285 1608.24 707.656C1609.62 705.992 1610.32 703.808 1610.32 701.104C1610.32 698.4 1609.62 696.32 1608.24 694.864C1606.85 693.373 1604.8 692.628 1602.1 692.628C1600.26 692.628 1598.65 693.079 1597.26 693.98C1595.91 694.847 1594.92 696.043 1594.3 697.568H1589.83V676.352H1612.45V680.512ZM1642.71 680.096L1628.25 714H1623.47L1638.13 680.564H1618.06V676.508H1642.71V680.096ZM1657.55 705.628V702.04L1675.81 676.768H1681.47V701.52H1686.67V705.628H1681.47V714H1676.79V705.628H1657.55ZM1677 681.708L1663.01 701.52H1677V681.708ZM1689.27 710.204C1693.67 706.668 1697.12 703.773 1699.62 701.52C1702.11 699.232 1704.21 696.857 1705.91 694.396C1707.64 691.9 1708.51 689.456 1708.51 687.064C1708.51 684.811 1707.96 683.043 1706.85 681.76C1705.77 680.443 1704.02 679.784 1701.59 679.784C1699.24 679.784 1697.4 680.529 1696.08 682.02C1694.8 683.476 1694.11 685.435 1694 687.896H1689.43C1689.56 684.013 1690.74 681.015 1692.96 678.9C1695.18 676.785 1698.04 675.728 1701.54 675.728C1705.11 675.728 1707.94 676.716 1710.02 678.692C1712.13 680.668 1713.19 683.389 1713.19 686.856C1713.19 689.733 1712.32 692.541 1710.59 695.28C1708.89 697.984 1706.95 700.376 1704.77 702.456C1702.58 704.501 1699.79 706.893 1696.39 709.632H1714.28V713.584H1689.27V710.204ZM1718.19 694.812C1718.19 688.849 1719.16 684.204 1721.1 680.876C1723.05 677.513 1726.44 675.832 1731.3 675.832C1736.11 675.832 1739.49 677.513 1741.44 680.876C1743.38 684.204 1744.35 688.849 1744.35 694.812C1744.35 700.879 1743.38 705.593 1741.44 708.956C1739.49 712.319 1736.11 714 1731.3 714C1726.44 714 1723.05 712.319 1721.1 708.956C1719.16 705.593 1718.19 700.879 1718.19 694.812ZM1739.67 694.812C1739.67 691.796 1739.46 689.248 1739.04 687.168C1738.66 685.053 1737.85 683.355 1736.6 682.072C1735.39 680.789 1733.62 680.148 1731.3 680.148C1728.94 680.148 1727.14 680.789 1725.89 682.072C1724.67 683.355 1723.86 685.053 1723.44 687.168C1723.06 689.248 1722.87 691.796 1722.87 694.812C1722.87 697.932 1723.06 700.549 1723.44 702.664C1723.86 704.779 1724.67 706.477 1725.89 707.76C1727.14 709.043 1728.94 709.684 1731.3 709.684C1733.62 709.684 1735.39 709.043 1736.6 707.76C1737.85 706.477 1738.66 704.779 1739.04 702.664C1739.46 700.549 1739.67 697.932 1739.67 694.812ZM1784.73 680.096L1770.27 714H1765.49L1780.15 680.564H1760.08V676.508H1784.73V680.096ZM1788.41 694.812C1788.41 688.849 1789.38 684.204 1791.33 680.876C1793.27 677.513 1796.66 675.832 1801.52 675.832C1806.34 675.832 1809.72 677.513 1811.66 680.876C1813.6 684.204 1814.57 688.849 1814.57 694.812C1814.57 700.879 1813.6 705.593 1811.66 708.956C1809.72 712.319 1806.34 714 1801.52 714C1796.66 714 1793.27 712.319 1791.33 708.956C1789.38 705.593 1788.41 700.879 1788.41 694.812ZM1809.89 694.812C1809.89 691.796 1809.68 689.248 1809.27 687.168C1808.88 685.053 1808.07 683.355 1806.82 682.072C1805.61 680.789 1803.84 680.148 1801.52 680.148C1799.16 680.148 1797.36 680.789 1796.11 682.072C1794.9 683.355 1794.08 685.053 1793.67 687.168C1793.28 689.248 1793.09 691.796 1793.09 694.812C1793.09 697.932 1793.28 700.549 1793.67 702.664C1794.08 704.779 1794.9 706.477 1796.11 707.76C1797.36 709.043 1799.16 709.684 1801.52 709.684C1803.84 709.684 1805.61 709.043 1806.82 707.76C1808.07 706.477 1808.88 704.779 1809.27 702.664C1809.68 700.549 1809.89 697.932 1809.89 694.812ZM1818.26 680.72V676.404H1828.03V714H1823.25V680.72H1818.26ZM1834.5 685.868C1834.74 682.679 1835.97 680.183 1838.19 678.38C1840.41 676.577 1843.29 675.676 1846.82 675.676C1849.18 675.676 1851.21 676.109 1852.91 676.976C1854.64 677.808 1855.94 678.952 1856.81 680.408C1857.71 681.864 1858.16 683.511 1858.16 685.348C1858.16 687.497 1857.53 689.352 1856.29 690.912C1855.07 692.472 1853.48 693.477 1851.5 693.928V694.188C1853.76 694.743 1855.54 695.835 1856.86 697.464C1858.18 699.093 1858.83 701.225 1858.83 703.86C1858.83 705.836 1858.38 707.621 1857.48 709.216C1856.58 710.776 1855.23 712.007 1853.43 712.908C1851.62 713.809 1849.46 714.26 1846.93 714.26C1843.25 714.26 1840.24 713.307 1837.88 711.4C1835.52 709.459 1834.2 706.72 1833.93 703.184H1838.5C1838.75 705.264 1839.59 706.963 1841.05 708.28C1842.51 709.597 1844.45 710.256 1846.87 710.256C1849.3 710.256 1851.14 709.632 1852.39 708.384C1853.67 707.101 1854.31 705.455 1854.31 703.444C1854.31 700.844 1853.44 698.972 1851.71 697.828C1849.98 696.684 1847.36 696.112 1843.86 696.112H1842.66V692.16H1843.91C1847.1 692.125 1849.51 691.605 1851.14 690.6C1852.77 689.56 1853.58 687.965 1853.58 685.816C1853.58 683.979 1852.98 682.505 1851.76 681.396C1850.58 680.287 1848.89 679.732 1846.67 679.732C1844.52 679.732 1842.78 680.287 1841.47 681.396C1840.15 682.505 1839.37 683.996 1839.13 685.868H1834.5ZM1132.48 766.364C1132.48 769.38 1131.44 771.893 1129.36 773.904C1127.31 775.88 1124.17 776.868 1119.94 776.868H1112.98V792H1108.24V755.756H1119.94C1124.03 755.756 1127.14 756.744 1129.25 758.72C1131.4 760.696 1132.48 763.244 1132.48 766.364ZM1119.94 772.968C1122.58 772.968 1124.52 772.396 1125.77 771.252C1127.02 770.108 1127.64 768.479 1127.64 766.364C1127.64 761.892 1125.07 759.656 1119.94 759.656H1112.98V772.968H1119.94ZM1135.03 777.648C1135.03 774.736 1135.62 772.188 1136.8 770.004C1137.98 767.785 1139.59 766.069 1141.63 764.856C1143.71 763.643 1146.02 763.036 1148.55 763.036C1151.05 763.036 1153.21 763.573 1155.05 764.648C1156.89 765.723 1158.26 767.075 1159.16 768.704V763.504H1163.94V792H1159.16V786.696C1158.22 788.36 1156.82 789.747 1154.95 790.856C1153.11 791.931 1150.96 792.468 1148.5 792.468C1145.97 792.468 1143.68 791.844 1141.63 790.596C1139.59 789.348 1137.98 787.597 1136.8 785.344C1135.62 783.091 1135.03 780.525 1135.03 777.648ZM1159.16 777.7C1159.16 775.551 1158.72 773.679 1157.86 772.084C1156.99 770.489 1155.81 769.276 1154.32 768.444C1152.87 767.577 1151.25 767.144 1149.49 767.144C1147.72 767.144 1146.11 767.56 1144.65 768.392C1143.19 769.224 1142.03 770.437 1141.17 772.032C1140.3 773.627 1139.87 775.499 1139.87 777.648C1139.87 779.832 1140.3 781.739 1141.17 783.368C1142.03 784.963 1143.19 786.193 1144.65 787.06C1146.11 787.892 1147.72 788.308 1149.49 788.308C1151.25 788.308 1152.87 787.892 1154.32 787.06C1155.81 786.193 1156.99 784.963 1157.86 783.368C1158.72 781.739 1159.16 779.849 1159.16 777.7ZM1180.47 792.468C1178.28 792.468 1176.32 792.104 1174.59 791.376C1172.86 790.613 1171.49 789.573 1170.48 788.256C1169.48 786.904 1168.92 785.361 1168.82 783.628H1173.71C1173.84 785.049 1174.5 786.211 1175.68 787.112C1176.9 788.013 1178.47 788.464 1180.41 788.464C1182.22 788.464 1183.64 788.065 1184.68 787.268C1185.72 786.471 1186.24 785.465 1186.24 784.252C1186.24 783.004 1185.68 782.085 1184.57 781.496C1183.46 780.872 1181.75 780.265 1179.43 779.676C1177.31 779.121 1175.58 778.567 1174.23 778.012C1172.91 777.423 1171.76 776.573 1170.79 775.464C1169.86 774.32 1169.39 772.829 1169.39 770.992C1169.39 769.536 1169.82 768.201 1170.69 766.988C1171.56 765.775 1172.79 764.821 1174.38 764.128C1175.98 763.4 1177.8 763.036 1179.84 763.036C1183 763.036 1185.54 763.833 1187.49 765.428C1189.43 767.023 1190.47 769.207 1190.61 771.98H1185.87C1185.77 770.489 1185.16 769.293 1184.05 768.392C1182.98 767.491 1181.52 767.04 1179.69 767.04C1177.99 767.04 1176.64 767.404 1175.63 768.132C1174.62 768.86 1174.12 769.813 1174.12 770.992C1174.12 771.928 1174.42 772.708 1175.01 773.332C1175.63 773.921 1176.39 774.407 1177.29 774.788C1178.23 775.135 1179.51 775.533 1181.14 775.984C1183.19 776.539 1184.85 777.093 1186.13 777.648C1187.42 778.168 1188.51 778.965 1189.41 780.04C1190.35 781.115 1190.83 782.519 1190.87 784.252C1190.87 785.812 1190.43 787.216 1189.57 788.464C1188.7 789.712 1187.47 790.7 1185.87 791.428C1184.31 792.121 1182.51 792.468 1180.47 792.468ZM1206.07 792.468C1203.89 792.468 1201.93 792.104 1200.2 791.376C1198.46 790.613 1197.1 789.573 1196.09 788.256C1195.08 786.904 1194.53 785.361 1194.43 783.628H1199.31C1199.45 785.049 1200.11 786.211 1201.29 787.112C1202.5 788.013 1204.08 788.464 1206.02 788.464C1207.82 788.464 1209.25 788.065 1210.29 787.268C1211.33 786.471 1211.85 785.465 1211.85 784.252C1211.85 783.004 1211.29 782.085 1210.18 781.496C1209.07 780.872 1207.36 780.265 1205.03 779.676C1202.92 779.121 1201.19 778.567 1199.83 778.012C1198.52 777.423 1197.37 776.573 1196.4 775.464C1195.47 774.32 1195 772.829 1195 770.992C1195 769.536 1195.43 768.201 1196.3 766.988C1197.16 765.775 1198.4 764.821 1199.99 764.128C1201.58 763.4 1203.4 763.036 1205.45 763.036C1208.6 763.036 1211.15 763.833 1213.09 765.428C1215.04 767.023 1216.08 769.207 1216.21 771.98H1211.48C1211.38 770.489 1210.77 769.293 1209.66 768.392C1208.59 767.491 1207.13 767.04 1205.29 767.04C1203.6 767.04 1202.24 767.404 1201.24 768.132C1200.23 768.86 1199.73 769.813 1199.73 770.992C1199.73 771.928 1200.02 772.708 1200.61 773.332C1201.24 773.921 1202 774.407 1202.9 774.788C1203.84 775.135 1205.12 775.533 1206.75 775.984C1208.8 776.539 1210.46 777.093 1211.74 777.648C1213.02 778.168 1214.12 778.965 1215.02 780.04C1215.95 781.115 1216.44 782.519 1216.47 784.252C1216.47 785.812 1216.04 787.216 1215.17 788.464C1214.31 789.712 1213.08 790.7 1211.48 791.428C1209.92 792.121 1208.12 792.468 1206.07 792.468ZM1259.55 763.504L1250.66 792H1245.77L1238.91 769.38L1232.05 792H1227.16L1218.21 763.504H1223.05L1229.6 787.424L1236.67 763.504H1241.51L1248.43 787.476L1254.87 763.504H1259.55ZM1275.12 792.468C1272.45 792.468 1270.02 791.861 1267.84 790.648C1265.69 789.435 1263.99 787.719 1262.74 785.5C1261.53 783.247 1260.92 780.647 1260.92 777.7C1260.92 774.788 1261.55 772.223 1262.79 770.004C1264.08 767.751 1265.81 766.035 1267.99 764.856C1270.18 763.643 1272.62 763.036 1275.33 763.036C1278.03 763.036 1280.47 763.643 1282.66 764.856C1284.84 766.035 1286.56 767.733 1287.81 769.952C1289.09 772.171 1289.73 774.753 1289.73 777.7C1289.73 780.647 1289.07 783.247 1287.75 785.5C1286.47 787.719 1284.72 789.435 1282.5 790.648C1280.28 791.861 1277.82 792.468 1275.12 792.468ZM1275.12 788.308C1276.82 788.308 1278.41 787.909 1279.9 787.112C1281.39 786.315 1282.59 785.119 1283.49 783.524C1284.43 781.929 1284.89 779.988 1284.89 777.7C1284.89 775.412 1284.44 773.471 1283.54 771.876C1282.64 770.281 1281.46 769.103 1280.01 768.34C1278.55 767.543 1276.97 767.144 1275.27 767.144C1273.54 767.144 1271.95 767.543 1270.49 768.34C1269.07 769.103 1267.92 770.281 1267.06 771.876C1266.19 773.471 1265.76 775.412 1265.76 777.7C1265.76 780.023 1266.17 781.981 1267.01 783.576C1267.87 785.171 1269.02 786.367 1270.44 787.164C1271.86 787.927 1273.42 788.308 1275.12 788.308ZM1299.12 768.132C1299.96 766.503 1301.13 765.237 1302.66 764.336C1304.22 763.435 1306.11 762.984 1308.33 762.984V767.872H1307.08C1301.78 767.872 1299.12 770.749 1299.12 776.504V792H1294.39V763.504H1299.12V768.132ZM1310.46 777.648C1310.46 774.736 1311.05 772.188 1312.23 770.004C1313.41 767.785 1315.02 766.069 1317.07 764.856C1319.15 763.643 1321.47 763.036 1324.03 763.036C1326.25 763.036 1328.32 763.556 1330.22 764.596C1332.13 765.601 1333.59 766.936 1334.59 768.6V753.52H1339.37V792H1334.59V786.644C1333.65 788.343 1332.27 789.747 1330.43 790.856C1328.59 791.931 1326.44 792.468 1323.98 792.468C1321.45 792.468 1319.15 791.844 1317.07 790.596C1315.02 789.348 1313.41 787.597 1312.23 785.344C1311.05 783.091 1310.46 780.525 1310.46 777.648ZM1334.59 777.7C1334.59 775.551 1334.16 773.679 1333.29 772.084C1332.42 770.489 1331.25 769.276 1329.75 768.444C1328.3 767.577 1326.69 767.144 1324.92 767.144C1323.15 767.144 1321.54 767.56 1320.08 768.392C1318.63 769.224 1317.47 770.437 1316.6 772.032C1315.73 773.627 1315.3 775.499 1315.3 777.648C1315.3 779.832 1315.73 781.739 1316.6 783.368C1317.47 784.963 1318.63 786.193 1320.08 787.06C1321.54 787.892 1323.15 788.308 1324.92 788.308C1326.69 788.308 1328.3 787.892 1329.75 787.06C1331.25 786.193 1332.42 784.963 1333.29 783.368C1334.16 781.739 1334.59 779.849 1334.59 777.7ZM1347.32 792.312C1346.42 792.312 1345.66 792 1345.03 791.376C1344.41 790.752 1344.1 789.989 1344.1 789.088C1344.1 788.187 1344.41 787.424 1345.03 786.8C1345.66 786.176 1346.42 785.864 1347.32 785.864C1348.19 785.864 1348.91 786.176 1349.5 786.8C1350.13 787.424 1350.44 788.187 1350.44 789.088C1350.44 789.989 1350.13 790.752 1349.5 791.376C1348.91 792 1348.19 792.312 1347.32 792.312ZM1347.32 770.056C1346.42 770.056 1345.66 769.744 1345.03 769.12C1344.41 768.496 1344.1 767.733 1344.1 766.832C1344.1 765.931 1344.41 765.168 1345.03 764.544C1345.66 763.92 1346.42 763.608 1347.32 763.608C1348.19 763.608 1348.91 763.92 1349.5 764.544C1350.13 765.168 1350.44 765.931 1350.44 766.832C1350.44 767.733 1350.13 768.496 1349.5 769.12C1348.91 769.744 1348.19 770.056 1347.32 770.056ZM1697.79 758.72V754.404H1707.56V792H1702.78V758.72H1697.79ZM1713.56 788.204C1717.96 784.668 1721.41 781.773 1723.91 779.52C1726.4 777.232 1728.5 774.857 1730.2 772.396C1731.93 769.9 1732.8 767.456 1732.8 765.064C1732.8 762.811 1732.24 761.043 1731.13 759.76C1730.06 758.443 1728.31 757.784 1725.88 757.784C1723.52 757.784 1721.69 758.529 1720.37 760.02C1719.09 761.476 1718.39 763.435 1718.29 765.896H1713.71C1713.85 762.013 1715.03 759.015 1717.25 756.9C1719.47 754.785 1722.33 753.728 1725.83 753.728C1729.4 753.728 1732.23 754.716 1734.31 756.692C1736.42 758.668 1737.48 761.389 1737.48 764.856C1737.48 767.733 1736.61 770.541 1734.88 773.28C1733.18 775.984 1731.24 778.376 1729.05 780.456C1726.87 782.501 1724.08 784.893 1720.68 787.632H1738.57V791.584H1713.56V788.204ZM1742.38 763.868C1742.62 760.679 1743.85 758.183 1746.07 756.38C1748.29 754.577 1751.16 753.676 1754.7 753.676C1757.06 753.676 1759.08 754.109 1760.78 754.976C1762.52 755.808 1763.82 756.952 1764.68 758.408C1765.58 759.864 1766.04 761.511 1766.04 763.348C1766.04 765.497 1765.41 767.352 1764.16 768.912C1762.95 770.472 1761.36 771.477 1759.38 771.928V772.188C1761.63 772.743 1763.42 773.835 1764.74 775.464C1766.05 777.093 1766.71 779.225 1766.71 781.86C1766.71 783.836 1766.26 785.621 1765.36 787.216C1764.46 788.776 1763.11 790.007 1761.3 790.908C1759.5 791.809 1757.33 792.26 1754.8 792.26C1751.13 792.26 1748.11 791.307 1745.76 789.4C1743.4 787.459 1742.08 784.72 1741.8 781.184H1746.38C1746.62 783.264 1747.47 784.963 1748.93 786.28C1750.38 787.597 1752.32 788.256 1754.75 788.256C1757.18 788.256 1759.02 787.632 1760.26 786.384C1761.55 785.101 1762.19 783.455 1762.19 781.444C1762.19 778.844 1761.32 776.972 1759.59 775.828C1757.85 774.684 1755.24 774.112 1751.74 774.112H1750.54V770.16H1751.79C1754.98 770.125 1757.39 769.605 1759.02 768.6C1760.64 767.56 1761.46 765.965 1761.46 763.816C1761.46 761.979 1760.85 760.505 1759.64 759.396C1758.46 758.287 1756.76 757.732 1754.54 757.732C1752.39 757.732 1750.66 758.287 1749.34 759.396C1748.03 760.505 1747.25 761.996 1747 763.868H1742.38ZM1770.4 783.628V780.04L1788.65 754.768H1794.32V779.52H1799.52V783.628H1794.32V792H1789.64V783.628H1770.4ZM1789.84 759.708L1775.86 779.52H1789.84V759.708ZM1826.66 758.512H1808.4V770.368C1809.2 769.259 1810.38 768.357 1811.94 767.664C1813.5 766.936 1815.18 766.572 1816.98 766.572C1819.86 766.572 1822.2 767.179 1824 768.392C1825.81 769.571 1827.09 771.113 1827.85 773.02C1828.65 774.892 1829.05 776.885 1829.05 779C1829.05 781.496 1828.58 783.732 1827.64 785.708C1826.71 787.684 1825.27 789.244 1823.33 790.388C1821.42 791.532 1819.05 792.104 1816.2 792.104C1812.56 792.104 1809.62 791.168 1807.36 789.296C1805.11 787.424 1803.74 784.928 1803.26 781.808H1807.88C1808.33 783.784 1809.29 785.327 1810.74 786.436C1812.2 787.545 1814.04 788.1 1816.26 788.1C1818.99 788.1 1821.06 787.285 1822.44 785.656C1823.83 783.992 1824.52 781.808 1824.52 779.104C1824.52 776.4 1823.83 774.32 1822.44 772.864C1821.06 771.373 1819.01 770.628 1816.31 770.628C1814.47 770.628 1812.86 771.079 1811.47 771.98C1810.12 772.847 1809.13 774.043 1808.51 775.568H1804.04V754.352H1826.66V758.512ZM1854.73 763.348C1853.97 759.5 1851.59 757.576 1847.61 757.576C1844.52 757.576 1842.22 758.772 1840.69 761.164C1839.17 763.521 1838.42 767.421 1838.46 772.864C1839.25 771.061 1840.57 769.657 1842.41 768.652C1844.28 767.612 1846.36 767.092 1848.65 767.092C1852.22 767.092 1855.06 768.201 1857.18 770.42C1859.33 772.639 1860.4 775.707 1860.4 779.624C1860.4 781.981 1859.93 784.096 1859 785.968C1858.09 787.84 1856.71 789.331 1854.84 790.44C1853 791.549 1850.76 792.104 1848.13 792.104C1844.56 792.104 1841.77 791.307 1839.76 789.712C1837.75 788.117 1836.34 785.916 1835.54 783.108C1834.75 780.3 1834.35 776.833 1834.35 772.708C1834.35 759.985 1838.79 753.624 1847.66 753.624C1851.06 753.624 1853.73 754.543 1855.67 756.38C1857.61 758.217 1858.75 760.54 1859.1 763.348H1854.73ZM1847.66 771.096C1846.17 771.096 1844.77 771.408 1843.45 772.032C1842.13 772.621 1841.06 773.54 1840.22 774.788C1839.43 776.001 1839.03 777.492 1839.03 779.26C1839.03 781.895 1839.79 784.044 1841.32 785.708C1842.84 787.337 1845.03 788.152 1847.87 788.152C1850.29 788.152 1852.22 787.407 1853.64 785.916C1855.1 784.391 1855.82 782.345 1855.82 779.78C1855.82 777.076 1855.13 774.961 1853.74 773.436C1852.36 771.876 1850.33 771.096 1847.66 771.096Z" fill="#637ACA"/>
<path d="M828.492 246.608L804.588 314H784.044L760.14 246.608H777.612L794.316 297.488L811.116 246.608H828.492ZM840.729 254.864C837.849 254.864 835.481 254.032 833.625 252.368C831.833 250.64 830.937 248.528 830.937 246.032C830.937 243.472 831.833 241.36 833.625 239.696C835.481 237.968 837.849 237.104 840.729 237.104C843.545 237.104 845.849 237.968 847.641 239.696C849.497 241.36 850.425 243.472 850.425 246.032C850.425 248.528 849.497 250.64 847.641 252.368C845.849 254.032 843.545 254.864 840.729 254.864ZM848.889 260.432V314H832.473V260.432H848.889ZM874.322 268.016C875.922 265.52 878.13 263.504 880.946 261.968C883.762 260.432 887.058 259.664 890.834 259.664C895.25 259.664 899.25 260.784 902.834 263.024C906.418 265.264 909.234 268.464 911.282 272.624C913.394 276.784 914.45 281.616 914.45 287.12C914.45 292.624 913.394 297.488 911.282 301.712C909.234 305.872 906.418 309.104 902.834 311.408C899.25 313.648 895.25 314.768 890.834 314.768C887.122 314.768 883.826 314 880.946 312.464C878.13 310.928 875.922 308.944 874.322 306.512V339.536H857.906V260.432H874.322V268.016ZM897.746 287.12C897.746 283.024 896.594 279.824 894.29 277.52C892.05 275.152 889.266 273.968 885.938 273.968C882.674 273.968 879.89 275.152 877.586 277.52C875.346 279.888 874.226 283.12 874.226 287.216C874.226 291.312 875.346 294.544 877.586 296.912C879.89 299.28 882.674 300.464 885.938 300.464C889.202 300.464 891.986 299.28 894.29 296.912C896.594 294.48 897.746 291.216 897.746 287.12ZM970.678 286.352C970.678 287.888 970.582 289.488 970.39 291.152H933.238C933.494 294.48 934.55 297.04 936.406 298.832C938.326 300.56 940.662 301.424 943.414 301.424C947.51 301.424 950.358 299.696 951.958 296.24H969.43C968.534 299.76 966.902 302.928 964.534 305.744C962.23 308.56 959.318 310.768 955.798 312.368C952.278 313.968 948.342 314.768 943.99 314.768C938.742 314.768 934.07 313.648 929.974 311.408C925.878 309.168 922.678 305.968 920.374 301.808C918.07 297.648 916.918 292.784 916.918 287.216C916.918 281.648 918.038 276.784 920.278 272.624C922.582 268.464 925.782 265.264 929.878 263.024C933.974 260.784 938.678 259.664 943.99 259.664C949.174 259.664 953.782 260.752 957.814 262.928C961.846 265.104 964.982 268.208 967.222 272.24C969.526 276.272 970.678 280.976 970.678 286.352ZM953.878 282.032C953.878 279.216 952.918 276.976 950.998 275.312C949.078 273.648 946.678 272.816 943.798 272.816C941.046 272.816 938.71 273.616 936.79 275.216C934.934 276.816 933.782 279.088 933.334 282.032H953.878ZM992.874 269.36C994.794 266.416 997.194 264.112 1000.07 262.448C1002.95 260.72 1006.15 259.856 1009.67 259.856V277.232H1005.16C1001.07 277.232 997.994 278.128 995.946 279.92C993.898 281.648 992.874 284.72 992.874 289.136V314H976.458V260.432H992.874V269.36ZM1052.05 274.128V289.04H1068.3V293.84H1052.05V309.2H1070.22V314H1046.22V269.328H1070.22V274.128H1052.05ZM1100.6 314L1089.98 295.76H1082.94V314H1077.12V269.392H1091.52C1094.89 269.392 1097.72 269.968 1100.03 271.12C1102.37 272.272 1104.12 273.829 1105.28 275.792C1106.43 277.755 1107 279.995 1107 282.512C1107 285.584 1106.11 288.293 1104.32 290.64C1102.57 292.987 1099.92 294.544 1096.38 295.312L1107.58 314H1100.6ZM1082.94 291.088H1091.52C1094.67 291.088 1097.04 290.32 1098.62 288.784C1100.2 287.205 1100.99 285.115 1100.99 282.512C1100.99 279.867 1100.2 277.819 1098.62 276.368C1097.08 274.917 1094.72 274.192 1091.52 274.192H1082.94V291.088ZM1141.59 269.392V274.128H1129.43V314H1123.6V274.128H1111.38V269.392H1141.59ZM1159.8 296.4C1159.8 292.773 1160.53 289.616 1161.98 286.928C1163.43 284.197 1165.44 282.085 1168 280.592C1170.6 279.099 1173.56 278.352 1176.89 278.352C1181.2 278.352 1184.74 279.397 1187.52 281.488C1190.33 283.579 1192.19 286.48 1193.08 290.192H1186.81C1186.22 288.059 1185.04 286.373 1183.29 285.136C1181.59 283.899 1179.45 283.28 1176.89 283.28C1173.56 283.28 1170.88 284.432 1168.83 286.736C1166.78 288.997 1165.76 292.219 1165.76 296.4C1165.76 300.624 1166.78 303.888 1168.83 306.192C1170.88 308.496 1173.56 309.648 1176.89 309.648C1179.45 309.648 1181.59 309.051 1183.29 307.856C1185 306.661 1186.17 304.955 1186.81 302.736H1193.08C1192.15 306.32 1190.27 309.2 1187.45 311.376C1184.64 313.509 1181.12 314.576 1176.89 314.576C1173.56 314.576 1170.6 313.829 1168 312.336C1165.44 310.843 1163.43 308.731 1161.98 306C1160.53 303.269 1159.8 300.069 1159.8 296.4ZM1230.94 295.12C1230.94 296.229 1230.87 297.403 1230.74 298.64H1202.71C1202.92 302.096 1204.1 304.805 1206.23 306.768C1208.41 308.688 1211.03 309.648 1214.1 309.648C1216.62 309.648 1218.71 309.072 1220.38 307.92C1222.08 306.725 1223.28 305.147 1223.96 303.184H1230.23C1229.29 306.555 1227.42 309.307 1224.6 311.44C1221.78 313.531 1218.28 314.576 1214.1 314.576C1210.78 314.576 1207.79 313.829 1205.14 312.336C1202.54 310.843 1200.49 308.731 1199 306C1197.51 303.227 1196.76 300.027 1196.76 296.4C1196.76 292.773 1197.48 289.595 1198.94 286.864C1200.39 284.133 1202.41 282.043 1205.02 280.592C1207.66 279.099 1210.69 278.352 1214.1 278.352C1217.43 278.352 1220.38 279.077 1222.94 280.528C1225.5 281.979 1227.46 283.984 1228.82 286.544C1230.23 289.061 1230.94 291.92 1230.94 295.12ZM1224.92 293.904C1224.92 291.685 1224.43 289.787 1223.45 288.208C1222.47 286.587 1221.12 285.371 1219.42 284.56C1217.75 283.707 1215.9 283.28 1213.85 283.28C1210.9 283.28 1208.39 284.219 1206.3 286.096C1204.25 287.973 1203.07 290.576 1202.78 293.904H1224.92ZM1253.79 278.288C1258.06 278.288 1261.51 279.589 1264.16 282.192C1266.8 284.752 1268.13 288.464 1268.13 293.328V314H1262.37V294.16C1262.37 290.661 1261.49 287.995 1259.74 286.16C1257.99 284.283 1255.6 283.344 1252.58 283.344C1249.5 283.344 1247.05 284.304 1245.22 286.224C1243.42 288.144 1242.53 290.939 1242.53 294.608V314H1236.7V278.928H1242.53V283.92C1243.68 282.128 1245.24 280.741 1247.2 279.76C1249.2 278.779 1251.4 278.288 1253.79 278.288ZM1282.82 283.728V304.4C1282.82 306.107 1283.19 307.323 1283.91 308.048C1284.64 308.731 1285.9 309.072 1287.69 309.072H1291.98V314H1286.73C1283.49 314 1281.05 313.253 1279.43 311.76C1277.81 310.267 1277 307.813 1277 304.4V283.728H1272.46V278.928H1277V270.096H1282.82V278.928H1291.98V283.728H1282.82ZM1302.94 284.624C1303.96 282.619 1305.41 281.061 1307.29 279.952C1309.21 278.843 1311.53 278.288 1314.26 278.288V284.304H1312.73C1306.2 284.304 1302.94 287.845 1302.94 294.928V314H1297.11V278.928H1302.94V284.624ZM1316.89 296.336C1316.89 292.752 1317.62 289.616 1319.07 286.928C1320.52 284.197 1322.5 282.085 1325.02 280.592C1327.58 279.099 1330.42 278.352 1333.53 278.352C1336.6 278.352 1339.27 279.013 1341.53 280.336C1343.79 281.659 1345.48 283.323 1346.59 285.328V278.928H1352.48V314H1346.59V307.472C1345.44 309.52 1343.71 311.227 1341.4 312.592C1339.14 313.915 1336.5 314.576 1333.47 314.576C1330.35 314.576 1327.54 313.808 1325.02 312.272C1322.5 310.736 1320.52 308.581 1319.07 305.808C1317.62 303.035 1316.89 299.877 1316.89 296.336ZM1346.59 296.4C1346.59 293.755 1346.05 291.451 1344.99 289.488C1343.92 287.525 1342.47 286.032 1340.64 285.008C1338.84 283.941 1336.86 283.408 1334.68 283.408C1332.51 283.408 1330.52 283.92 1328.73 284.944C1326.94 285.968 1325.51 287.461 1324.44 289.424C1323.38 291.387 1322.84 293.691 1322.84 296.336C1322.84 299.024 1323.38 301.371 1324.44 303.376C1325.51 305.339 1326.94 306.853 1328.73 307.92C1330.52 308.944 1332.51 309.456 1334.68 309.456C1336.86 309.456 1338.84 308.944 1340.64 307.92C1342.47 306.853 1343.92 305.339 1344.99 303.376C1346.05 301.371 1346.59 299.045 1346.59 296.4ZM1366.22 266.64V314H1360.4V266.64H1366.22ZM1377.24 273.232C1376.13 273.232 1375.19 272.848 1374.42 272.08C1373.65 271.312 1373.27 270.373 1373.27 269.264C1373.27 268.155 1373.65 267.216 1374.42 266.448C1375.19 265.68 1376.13 265.296 1377.24 265.296C1378.3 265.296 1379.2 265.68 1379.92 266.448C1380.69 267.216 1381.08 268.155 1381.08 269.264C1381.08 270.373 1380.69 271.312 1379.92 272.08C1379.2 272.848 1378.3 273.232 1377.24 273.232ZM1380.05 278.928V314H1374.23V278.928H1380.05ZM1392.41 309.2H1409.63V314H1385.75V309.2L1402.78 283.664H1385.88V278.928H1409.5V283.664L1392.41 309.2ZM1447.26 295.12C1447.26 296.229 1447.2 297.403 1447.07 298.64H1419.04C1419.25 302.096 1420.43 304.805 1422.56 306.768C1424.74 308.688 1427.36 309.648 1430.43 309.648C1432.95 309.648 1435.04 309.072 1436.7 307.92C1438.41 306.725 1439.6 305.147 1440.29 303.184H1446.56C1445.62 306.555 1443.74 309.307 1440.93 311.44C1438.11 313.531 1434.61 314.576 1430.43 314.576C1427.1 314.576 1424.12 313.829 1421.47 312.336C1418.87 310.843 1416.82 308.731 1415.33 306C1413.83 303.227 1413.09 300.027 1413.09 296.4C1413.09 292.773 1413.81 289.595 1415.26 286.864C1416.71 284.133 1418.74 282.043 1421.34 280.592C1423.99 279.099 1427.02 278.352 1430.43 278.352C1433.76 278.352 1436.7 279.077 1439.26 280.528C1441.82 281.979 1443.79 283.984 1445.15 286.544C1446.56 289.061 1447.26 291.92 1447.26 295.12ZM1441.25 293.904C1441.25 291.685 1440.76 289.787 1439.78 288.208C1438.79 286.587 1437.45 285.371 1435.74 284.56C1434.08 283.707 1432.22 283.28 1430.18 283.28C1427.23 283.28 1424.71 284.219 1422.62 286.096C1420.58 287.973 1419.4 290.576 1419.1 293.904H1441.25ZM1450.85 296.336C1450.85 292.752 1451.58 289.616 1453.03 286.928C1454.48 284.197 1456.47 282.085 1458.98 280.592C1461.54 279.099 1464.4 278.352 1467.56 278.352C1470.29 278.352 1472.83 278.992 1475.17 280.272C1477.52 281.509 1479.31 283.152 1480.55 285.2V266.64H1486.44V314H1480.55V307.408C1479.4 309.499 1477.69 311.227 1475.43 312.592C1473.17 313.915 1470.52 314.576 1467.49 314.576C1464.38 314.576 1461.54 313.808 1458.98 312.272C1456.47 310.736 1454.48 308.581 1453.03 305.808C1451.58 303.035 1450.85 299.877 1450.85 296.336ZM1480.55 296.4C1480.55 293.755 1480.02 291.451 1478.95 289.488C1477.88 287.525 1476.43 286.032 1474.6 285.008C1472.81 283.941 1470.82 283.408 1468.65 283.408C1466.47 283.408 1464.49 283.92 1462.69 284.944C1460.9 285.968 1459.47 287.461 1458.41 289.424C1457.34 291.387 1456.81 293.691 1456.81 296.336C1456.81 299.024 1457.34 301.371 1458.41 303.376C1459.47 305.339 1460.9 306.853 1462.69 307.92C1464.49 308.944 1466.47 309.456 1468.65 309.456C1470.82 309.456 1472.81 308.944 1474.6 307.92C1476.43 306.853 1477.88 305.339 1478.95 303.376C1480.02 301.371 1480.55 299.045 1480.55 296.4ZM1523.39 269.392C1528.26 269.392 1532.46 270.309 1536 272.144C1539.58 273.936 1542.31 276.517 1544.19 279.888C1546.11 283.259 1547.07 287.227 1547.07 291.792C1547.07 296.357 1546.11 300.325 1544.19 303.696C1542.31 307.024 1539.58 309.584 1536 311.376C1532.46 313.125 1528.26 314 1523.39 314H1509.5V269.392H1523.39ZM1523.39 309.2C1529.15 309.2 1533.55 307.685 1536.58 304.656C1539.6 301.584 1541.12 297.296 1541.12 291.792C1541.12 286.245 1539.58 281.915 1536.51 278.8C1533.48 275.685 1529.11 274.128 1523.39 274.128H1515.33V309.2H1523.39ZM1584.83 295.12C1584.83 296.229 1584.77 297.403 1584.64 298.64H1556.61C1556.82 302.096 1558 304.805 1560.13 306.768C1562.31 308.688 1564.93 309.648 1568 309.648C1570.52 309.648 1572.61 309.072 1574.27 307.92C1575.98 306.725 1577.17 305.147 1577.86 303.184H1584.13C1583.19 306.555 1581.31 309.307 1578.5 311.44C1575.68 313.531 1572.18 314.576 1568 314.576C1564.67 314.576 1561.69 313.829 1559.04 312.336C1556.44 310.843 1554.39 308.731 1552.9 306C1551.4 303.227 1550.66 300.027 1550.66 296.4C1550.66 292.773 1551.38 289.595 1552.83 286.864C1554.28 284.133 1556.31 282.043 1558.91 280.592C1561.56 279.099 1564.59 278.352 1568 278.352C1571.33 278.352 1574.27 279.077 1576.83 280.528C1579.39 281.979 1581.36 283.984 1582.72 286.544C1584.13 289.061 1584.83 291.92 1584.83 295.12ZM1578.82 293.904C1578.82 291.685 1578.33 289.787 1577.35 288.208C1576.36 286.587 1575.02 285.371 1573.31 284.56C1571.65 283.707 1569.79 283.28 1567.75 283.28C1564.8 283.28 1562.28 284.219 1560.19 286.096C1558.15 287.973 1556.97 290.576 1556.67 293.904H1578.82ZM1603.66 308.624L1614.54 278.928H1620.74L1606.98 314H1600.2L1586.44 278.928H1592.71L1603.66 308.624ZM1644.78 314.448C1640.64 314.448 1636.86 313.488 1633.45 311.568C1630.04 309.605 1627.33 306.896 1625.32 303.44C1623.36 299.941 1622.38 296.016 1622.38 291.664C1622.38 287.312 1623.36 283.408 1625.32 279.952C1627.33 276.453 1630.04 273.744 1633.45 271.824C1636.86 269.861 1640.64 268.88 1644.78 268.88C1648.96 268.88 1652.76 269.861 1656.17 271.824C1659.58 273.744 1662.27 276.432 1664.24 279.888C1666.2 283.344 1667.18 287.269 1667.18 291.664C1667.18 296.059 1666.2 299.984 1664.24 303.44C1662.27 306.896 1659.58 309.605 1656.17 311.568C1652.76 313.488 1648.96 314.448 1644.78 314.448ZM1644.78 309.392C1647.89 309.392 1650.69 308.667 1653.16 307.216C1655.68 305.765 1657.64 303.696 1659.05 301.008C1660.5 298.32 1661.23 295.205 1661.23 291.664C1661.23 288.08 1660.5 284.965 1659.05 282.32C1657.64 279.632 1655.7 277.563 1653.23 276.112C1650.75 274.661 1647.94 273.936 1644.78 273.936C1641.62 273.936 1638.81 274.661 1636.33 276.112C1633.86 277.563 1631.89 279.632 1630.44 282.32C1629.04 284.965 1628.33 288.08 1628.33 291.664C1628.33 295.205 1629.04 298.32 1630.44 301.008C1631.89 303.696 1633.86 305.765 1636.33 307.216C1638.85 308.667 1641.66 309.392 1644.78 309.392ZM1678.77 285.392C1679.92 283.387 1681.63 281.723 1683.89 280.4C1686.2 279.035 1688.86 278.352 1691.89 278.352C1695.01 278.352 1697.82 279.099 1700.34 280.592C1702.9 282.085 1704.91 284.197 1706.36 286.928C1707.81 289.616 1708.53 292.752 1708.53 296.336C1708.53 299.877 1707.81 303.035 1706.36 305.808C1704.91 308.581 1702.9 310.736 1700.34 312.272C1697.82 313.808 1695.01 314.576 1691.89 314.576C1688.91 314.576 1686.26 313.915 1683.96 312.592C1681.69 311.227 1679.97 309.541 1678.77 307.536V330.64H1672.95V278.928H1678.77V285.392ZM1702.58 296.336C1702.58 293.691 1702.05 291.387 1700.98 289.424C1699.91 287.461 1698.46 285.968 1696.63 284.944C1694.84 283.92 1692.85 283.408 1690.68 283.408C1688.54 283.408 1686.56 283.941 1684.72 285.008C1682.93 286.032 1681.48 287.547 1680.37 289.552C1679.31 291.515 1678.77 293.797 1678.77 296.4C1678.77 299.045 1679.31 301.371 1680.37 303.376C1681.48 305.339 1682.93 306.853 1684.72 307.92C1686.56 308.944 1688.54 309.456 1690.68 309.456C1692.85 309.456 1694.84 308.944 1696.63 307.92C1698.46 306.853 1699.91 305.339 1700.98 303.376C1702.05 301.371 1702.58 299.024 1702.58 296.336ZM1726.69 314.576C1724.01 314.576 1721.6 314.128 1719.46 313.232C1717.33 312.293 1715.64 311.013 1714.41 309.392C1713.17 307.728 1712.49 305.829 1712.36 303.696H1718.37C1718.54 305.445 1719.36 306.875 1720.81 307.984C1722.3 309.093 1724.24 309.648 1726.63 309.648C1728.85 309.648 1730.6 309.157 1731.88 308.176C1733.16 307.195 1733.8 305.957 1733.8 304.464C1733.8 302.928 1733.12 301.797 1731.75 301.072C1730.38 300.304 1728.27 299.557 1725.41 298.832C1722.81 298.149 1720.68 297.467 1719.01 296.784C1717.39 296.059 1715.98 295.013 1714.79 293.648C1713.64 292.24 1713.06 290.405 1713.06 288.144C1713.06 286.352 1713.6 284.709 1714.66 283.216C1715.73 281.723 1717.24 280.549 1719.21 279.696C1721.17 278.8 1723.41 278.352 1725.93 278.352C1729.81 278.352 1732.94 279.333 1735.33 281.296C1737.72 283.259 1739 285.947 1739.17 289.36H1733.35C1733.22 287.525 1732.48 286.053 1731.11 284.944C1729.79 283.835 1728 283.28 1725.73 283.28C1723.64 283.28 1721.98 283.728 1720.74 284.624C1719.5 285.52 1718.89 286.693 1718.89 288.144C1718.89 289.296 1719.25 290.256 1719.97 291.024C1720.74 291.749 1721.68 292.347 1722.79 292.816C1723.94 293.243 1725.52 293.733 1727.53 294.288C1730.04 294.971 1732.09 295.653 1733.67 296.336C1735.25 296.976 1736.59 297.957 1737.7 299.28C1738.85 300.603 1739.45 302.331 1739.49 304.464C1739.49 306.384 1738.96 308.112 1737.89 309.648C1736.83 311.184 1735.31 312.4 1733.35 313.296C1731.43 314.149 1729.21 314.576 1726.69 314.576ZM1768.04 283.728V304.4C1768.04 306.107 1768.4 307.323 1769.13 308.048C1769.86 308.731 1771.11 309.072 1772.91 309.072H1777.19V314H1771.95C1768.7 314 1766.27 313.253 1764.65 311.76C1763.03 310.267 1762.22 307.813 1762.22 304.4V283.728H1757.67V278.928H1762.22V270.096H1768.04V278.928H1777.19V283.728H1768.04ZM1797.63 314.576C1794.34 314.576 1791.35 313.829 1788.67 312.336C1786.02 310.843 1783.93 308.731 1782.39 306C1780.9 303.227 1780.15 300.027 1780.15 296.4C1780.15 292.816 1780.92 289.659 1782.46 286.928C1784.04 284.155 1786.17 282.043 1788.86 280.592C1791.55 279.099 1794.55 278.352 1797.88 278.352C1801.21 278.352 1804.22 279.099 1806.91 280.592C1809.59 282.043 1811.71 284.133 1813.24 286.864C1814.82 289.595 1815.61 292.773 1815.61 296.4C1815.61 300.027 1814.8 303.227 1813.18 306C1811.6 308.731 1809.45 310.843 1806.71 312.336C1803.98 313.829 1800.95 314.576 1797.63 314.576ZM1797.63 309.456C1799.72 309.456 1801.68 308.965 1803.51 307.984C1805.35 307.003 1806.82 305.531 1807.93 303.568C1809.08 301.605 1809.66 299.216 1809.66 296.4C1809.66 293.584 1809.1 291.195 1807.99 289.232C1806.89 287.269 1805.43 285.819 1803.64 284.88C1801.85 283.899 1799.91 283.408 1797.82 283.408C1795.69 283.408 1793.72 283.899 1791.93 284.88C1790.18 285.819 1788.77 287.269 1787.71 289.232C1786.64 291.195 1786.11 293.584 1786.11 296.4C1786.11 299.259 1786.62 301.669 1787.64 303.632C1788.71 305.595 1790.12 307.067 1791.87 308.048C1793.62 308.987 1795.54 309.456 1797.63 309.456ZM1836.64 314.576C1833.36 314.576 1830.37 313.829 1827.68 312.336C1825.04 310.843 1822.95 308.731 1821.41 306C1819.92 303.227 1819.17 300.027 1819.17 296.4C1819.17 292.816 1819.94 289.659 1821.48 286.928C1823.05 284.155 1825.19 282.043 1827.88 280.592C1830.56 279.099 1833.57 278.352 1836.9 278.352C1840.23 278.352 1843.24 279.099 1845.92 280.592C1848.61 282.043 1850.72 284.133 1852.26 286.864C1853.84 289.595 1854.63 292.773 1854.63 296.4C1854.63 300.027 1853.82 303.227 1852.2 306C1850.62 308.731 1848.46 310.843 1845.73 312.336C1843 313.829 1839.97 314.576 1836.64 314.576ZM1836.64 309.456C1838.73 309.456 1840.7 308.965 1842.53 307.984C1844.37 307.003 1845.84 305.531 1846.95 303.568C1848.1 301.605 1848.68 299.216 1848.68 296.4C1848.68 293.584 1848.12 291.195 1847.01 289.232C1845.9 287.269 1844.45 285.819 1842.66 284.88C1840.87 283.899 1838.93 283.408 1836.84 283.408C1834.7 283.408 1832.74 283.899 1830.95 284.88C1829.2 285.819 1827.79 287.269 1826.72 289.232C1825.66 291.195 1825.12 293.584 1825.12 296.4C1825.12 299.259 1825.64 301.669 1826.66 303.632C1827.73 305.595 1829.13 307.067 1830.88 308.048C1832.63 308.987 1834.55 309.456 1836.64 309.456ZM1866.19 266.64V314H1860.37V266.64H1866.19Z" fill="#478DF7"/>
<defs>
<filter id="filter0_d_215_2" x="-734" y="-385" width="1616" height="1652" filterUnits="userSpaceOnUse" color-interpolation-filters="sRGB">
<feFlood flood-opacity="0" result="BackgroundImageFix"/>
<feColorMatrix in="SourceAlpha" type="matrix" values="0 0 0 0 0 0 0 0 0 0 0 0 0 0 0 0 0 0 127 0" result="hardAlpha"/>
<feOffset dx="20"/>
<feGaussianBlur stdDeviation="25"/>
<feComposite in2="hardAlpha" operator="out"/>
<feColorMatrix type="matrix" values="0 0 0 0 0 0 0 0 0 0 0 0 0 0 0 0 0 0 0.15 0"/>
<feBlend mode="normal" in2="BackgroundImageFix" result="effect1_dropShadow_215_2"/>
<feBlend mode="normal" in="SourceGraphic" in2="effect1_dropShadow_215_2" result="shape"/>
</filter>
<filter id="filter1_dddddd_215_2" x="-458.387" y="163.806" width="824.774" height="689.839" filterUnits="userSpaceOnUse" color-interpolation-filters="sRGB">
<feFlood flood-opacity="0" result="BackgroundImageFix"/>
<feColorMatrix in="SourceAlpha" type="matrix" values="0 0 0 0 0 0 0 0 0 0 0 0 0 0 0 0 0 0 127 0" result="hardAlpha"/>
<feOffset dy="3.74438"/>
<feGaussianBlur stdDeviation="1.37932"/>
<feColorMatrix type="matrix" values="0 0 0 0 0.0509804 0 0 0 0 0.121569 0 0 0 0 0.396078 0 0 0 0.189957 0"/>
<feBlend mode="multiply" in2="BackgroundImageFix" result="effect1_dropShadow_215_2"/>
<feColorMatrix in="SourceAlpha" type="matrix" values="0 0 0 0 0 0 0 0 0 0 0 0 0 0 0 0 0 0 127 0" result="hardAlpha"/>
<feOffset dy="7.34641"/>
<feGaussianBlur stdDeviation="3.06771"/>
<feColorMatrix type="matrix" values="0 0 0 0 0.0509804 0 0 0 0 0.121569 0 0 0 0 0.396078 0 0 0 0.368551 0"/>
<feBlend mode="multiply" in2="effect1_dropShadow_215_2" result="effect2_dropShadow_215_2"/>
<feColorMatrix in="SourceAlpha" type="matrix" values="0 0 0 0 0 0 0 0 0 0 0 0 0 0 0 0 0 0 127 0" result="hardAlpha"/>
<feOffset dy="11.298"/>
<feGaussianBlur stdDeviation="5.25387"/>
<feColorMatrix type="matrix" values="0 0 0 0 0.0509804 0 0 0 0 0.121569 0 0 0 0 0.396078 0 0 0 0.3 0"/>
<feBlend mode="multiply" in2="effect2_dropShadow_215_2" result="effect3_dropShadow_215_2"/>
<feColorMatrix in="SourceAlpha" type="matrix" values="0 0 0 0 0 0 0 0 0 0 0 0 0 0 0 0 0 0 127 0" result="hardAlpha"/>
<feOffset dy="16.5778"/>
<feGaussianBlur stdDeviation="16.685"/>
<feColorMatrix type="matrix" values="0 0 0 0 0.0509804 0 0 0 0 0.121569 0 0 0 0 0.396078 0 0 0 0.3 0"/>
<feBlend mode="multiply" in2="effect3_dropShadow_215_2" result="effect4_dropShadow_215_2"/>
<feColorMatrix in="SourceAlpha" type="matrix" values="0 0 0 0 0 0 0 0 0 0 0 0 0 0 0 0 0 0 127 0" result="hardAlpha"/>
<feOffset dy="25.7957"/>
<feGaussianBlur stdDeviation="31.02"/>
<feColorMatrix type="matrix" values="0 0 0 0 0.0509804 0 0 0 0 0.121569 0 0 0 0 0.396078 0 0 0 0.29 0"/>
<feBlend mode="overlay" in2="effect4_dropShadow_215_2" result="effect5_dropShadow_215_2"/>
<feColorMatrix in="SourceAlpha" type="matrix" values="0 0 0 0 0 0 0 0 0 0 0 0 0 0 0 0 0 0 127 0" result="hardAlpha"/>
<feOffset dy="68.2258"/>
<feGaussianBlur stdDeviation="54.5806"/>
<feColorMatrix type="matrix" values="0 0 0 0 0.0509804 0 0 0 0 0.121569 0 0 0 0 0.396078 0 0 0 0.45 0"/>
<feBlend mode="multiply" in2="effect5_dropShadow_215_2" result="effect6_dropShadow_215_2"/>
<feBlend mode="normal" in="SourceGraphic" in2="effect6_dropShadow_215_2" result="shape"/>
</filter>
<filter id="filter2_dddddd_215_2" x="184.452" y="168.355" width="419.968" height="681.897" filterUnits="userSpaceOnUse" color-interpolation-filters="sRGB">
<feFlood flood-opacity="0" result="BackgroundImageFix"/>
<feColorMatrix in="SourceAlpha" type="matrix" values="0 0 0 0 0 0 0 0 0 0 0 0 0 0 0 0 0 0 127 0" result="hardAlpha"/>
<feOffset dy="3.74438"/>
<feGaussianBlur stdDeviation="1.37932"/>
<feColorMatrix type="matrix" values="0 0 0 0 0.0509804 0 0 0 0 0.121569 0 0 0 0 0.396078 0 0 0 0.189957 0"/>
<feBlend mode="multiply" in2="BackgroundImageFix" result="effect1_dropShadow_215_2"/>
<feColorMatrix in="SourceAlpha" type="matrix" values="0 0 0 0 0 0 0 0 0 0 0 0 0 0 0 0 0 0 127 0" result="hardAlpha"/>
<feOffset dy="7.34641"/>
<feGaussianBlur stdDeviation="3.06771"/>
<feColorMatrix type="matrix" values="0 0 0 0 0.0509804 0 0 0 0 0.121569 0 0 0 0 0.396078 0 0 0 0.368551 0"/>
<feBlend mode="multiply" in2="effect1_dropShadow_215_2" result="effect2_dropShadow_215_2"/>
<feColorMatrix in="SourceAlpha" type="matrix" values="0 0 0 0 0 0 0 0 0 0 0 0 0 0 0 0 0 0 127 0" result="hardAlpha"/>
<feOffset dy="11.298"/>
<feGaussianBlur stdDeviation="5.25387"/>
<feColorMatrix type="matrix" values="0 0 0 0 0.0509804 0 0 0 0 0.121569 0 0 0 0 0.396078 0 0 0 0.3 0"/>
<feBlend mode="multiply" in2="effect2_dropShadow_215_2" result="effect3_dropShadow_215_2"/>
<feColorMatrix in="SourceAlpha" type="matrix" values="0 0 0 0 0 0 0 0 0 0 0 0 0 0 0 0 0 0 127 0" result="hardAlpha"/>
<feOffset dy="16.5778"/>
<feGaussianBlur stdDeviation="16.685"/>
<feColorMatrix type="matrix" values="0 0 0 0 0.0509804 0 0 0 0 0.121569 0 0 0 0 0.396078 0 0 0 0.3 0"/>
<feBlend mode="multiply" in2="effect3_dropShadow_215_2" result="effect4_dropShadow_215_2"/>
<feColorMatrix in="SourceAlpha" type="matrix" values="0 0 0 0 0 0 0 0 0 0 0 0 0 0 0 0 0 0 127 0" result="hardAlpha"/>
<feOffset dy="25.7957"/>
<feGaussianBlur stdDeviation="31.02"/>
<feColorMatrix type="matrix" values="0 0 0 0 0.0509804 0 0 0 0 0.121569 0 0 0 0 0.396078 0 0 0 0.29 0"/>
<feBlend mode="overlay" in2="effect4_dropShadow_215_2" result="effect5_dropShadow_215_2"/>
<feColorMatrix in="SourceAlpha" type="matrix" values="0 0 0 0 0 0 0 0 0 0 0 0 0 0 0 0 0 0 127 0" result="hardAlpha"/>
<feOffset dy="68.2258"/>
<feGaussianBlur stdDeviation="54.5806"/>
<feColorMatrix type="matrix" values="0 0 0 0 0.0509804 0 0 0 0 0.121569 0 0 0 0 0.396078 0 0 0 0.45 0"/>
<feBlend mode="multiply" in2="effect5_dropShadow_215_2" result="effect6_dropShadow_215_2"/>
<feBlend mode="normal" in="SourceGraphic" in2="effect6_dropShadow_215_2" result="shape"/>
</filter>
<linearGradient id="paint0_linear_215_2" x1="72.3201" y1="-183.387" x2="72.3201" y2="1067.19" gradientUnits="userSpaceOnUse">
<stop stop-color="#75A6F5"/>
<stop offset="1" stop-color="#385FE7"/>
</linearGradient>
<linearGradient id="paint1_linear_215_2" x1="-46" y1="204.742" x2="-46" y2="676.258" gradientUnits="userSpaceOnUse">
<stop stop-color="white"/>
<stop offset="1" stop-color="#C5D4F7"/>
</linearGradient>
<linearGradient id="paint2_linear_215_2" x1="-46" y1="204.742" x2="-46" y2="676.258" gradientUnits="userSpaceOnUse">
<stop stop-color="white"/>
<stop offset="1" stop-color="#637ACA"/>
</linearGradient>
<linearGradient id="paint3_linear_215_2" x1="394.435" y1="209.29" x2="394.435" y2="672.865" gradientUnits="userSpaceOnUse">
<stop stop-color="white"/>
<stop offset="1" stop-color="#C5D4F7"/>
</linearGradient>
<linearGradient id="paint4_linear_215_2" x1="394.435" y1="209.29" x2="394.435" y2="672.865" gradientUnits="userSpaceOnUse">
<stop stop-color="white"/>
<stop offset="1" stop-color="#637ACA"/>
</linearGradient>
</defs>
</svg>
