<svg width="300" height="300" viewBox="0 0 300 300" fill="none" xmlns="http://www.w3.org/2000/svg">
<path d="M150 300C68.1002 300 1.47516 232.713 1.47516 150C1.47516 67.2875 68.1002 0 150 0C231.9 0 298.525 67.2875 298.525 150C298.525 232.713 231.9 300 150 300ZM150 8.2625C72.6627 8.2625 9.73766 71.85 9.73766 150C9.73766 228.15 72.6627 291.738 150 291.738C227.338 291.738 290.263 228.162 290.263 150C290.263 71.8375 227.338 8.2625 150 8.2625ZM100.375 252.463C100.375 252.463 112.6 253.325 128.325 251.938C134.7 251.375 158.875 249 176.963 245.038C176.963 245.038 199.013 240.325 210.8 235.975C223.138 231.425 229.85 227.562 232.875 222.1C232.738 220.975 233.8 217 228.113 214.613C213.563 208.513 196.688 209.612 163.3 208.9C126.275 207.625 113.95 201.425 107.4 196.438C101.113 191.375 104.275 177.362 131.238 165.025C144.813 158.45 198.05 146.325 198.05 146.325C180.125 137.462 146.688 121.888 139.813 118.525C133.788 115.575 124.138 111.138 122.05 105.763C119.675 100.6 127.65 96.1625 132.1 94.8875C146.438 90.75 166.675 88.1875 185.1 87.8875C194.363 87.7375 195.863 87.15 195.863 87.15C208.638 85.025 217.05 76.2875 213.538 62.45C210.388 48.325 193.8 40.0125 178.038 42.8875C163.188 45.6 127.413 55.9875 127.413 55.9875C171.65 55.6 179.05 56.3375 182.35 60.9625C184.3 63.6875 181.463 67.4375 169.663 69.3625C156.825 71.4625 130.125 73.9875 130.125 73.9875C104.513 75.5125 86.4752 75.6125 81.0627 87.0625C77.5252 94.55 84.8377 101.175 88.0377 105.312C101.563 120.363 121.113 128.475 133.688 134.45C138.425 136.7 152.313 140.95 152.313 140.95C111.5 138.7 82.0752 151.238 64.8002 165.663C45.2752 183.725 53.9127 205.263 93.9252 218.513C117.563 226.338 129.275 230.025 164.525 226.85C185.288 225.725 188.563 226.4 188.763 228.1C189.05 230.5 165.7 236.462 159.325 238.3C143.1 242.975 100.588 252.413 100.375 252.463Z" fill="#FF3E00"/>
</svg>
