<svg width="354" height="285" viewBox="0 0 354 285" fill="none" xmlns="http://www.w3.org/2000/svg">
<path d="M286.013 57.6781L286.013 57.6784C284.431 59.5766 283.423 61.8862 283.107 64.3366C282.791 66.7871 283.18 69.2769 284.228 71.5144C285.276 73.7518 286.94 75.6443 289.025 76.97C291.11 78.2958 293.529 78.9999 296 79H336C339.448 79 342.754 77.6304 345.192 75.1924C347.63 72.7544 349 69.4478 349 66C349 62.5522 347.63 59.2456 345.192 56.8076C342.754 54.3696 339.448 53 336 53H323.755L345.987 26.3219L345.987 26.3216C347.569 24.4234 348.577 22.1138 348.893 19.6633C349.209 17.2129 348.82 14.7231 347.772 12.4857C346.724 10.2482 345.06 8.35573 342.975 7.02996C340.89 5.7042 338.471 5.00005 336 5H336H296C292.552 5 289.246 6.36964 286.808 8.80761C284.37 11.2456 283 14.5522 283 18C283 21.4478 284.37 24.7544 286.808 27.1924C289.246 29.6304 292.552 31 296 31H308.245L286.013 57.6781Z" fill="white" stroke="#FF3E00" stroke-width="10"/>
<path d="M187.428 152.929H187.429H244.571C249.592 152.929 254.406 150.934 257.956 147.385C261.506 143.835 263.5 139.02 263.5 134C263.5 128.98 261.506 124.165 257.956 120.615C254.406 117.066 249.592 115.071 244.571 115.071H227.841L259.113 77.5457L259.113 77.5452C261.416 74.7814 262.884 71.4185 263.344 67.8505C263.804 64.2825 263.238 60.6573 261.712 57.3994C260.186 54.1416 257.764 51.3861 254.728 49.4557C251.692 47.5253 248.169 46.5001 244.572 46.5H244.571H187.429C182.408 46.5 177.594 48.4943 174.044 52.0441L179.347 57.3474L174.044 52.0441C170.494 55.5938 168.5 60.4084 168.5 65.4286C168.5 70.4487 170.494 75.2633 174.044 78.8131C177.594 82.3629 182.408 84.3571 187.429 84.3571H204.159L172.887 121.883L172.887 121.883C170.584 124.647 169.116 128.01 168.656 131.578C168.196 135.146 168.762 138.771 170.288 142.029C171.814 145.287 174.236 148.042 177.272 149.973C180.308 151.903 183.831 152.928 187.428 152.929Z" fill="white" stroke="#FF3E00" stroke-width="15"/>
<path d="M16.0258 232.356L16.0253 232.357C12.8621 236.153 10.8463 240.772 10.214 245.673C9.58176 250.574 10.3592 255.554 12.4553 260.029C14.5514 264.504 17.8793 268.289 22.0492 270.94C26.2191 273.592 31.0583 275 35.9998 275H116C122.896 275 129.509 272.261 134.385 267.385C139.261 262.509 142 255.896 142 249C142 242.104 139.261 235.491 134.385 230.615C129.509 225.739 122.896 223 116 223H91.5105L135.974 169.644L135.975 169.643C139.138 165.847 141.154 161.228 141.786 156.327C142.418 151.426 141.641 146.446 139.545 141.971C137.449 137.496 134.121 133.711 129.951 131.06C125.781 128.408 120.942 127 116 127H116H36C29.1044 127 22.4912 129.739 17.6152 134.615C12.7393 139.491 10 146.104 10 153C10 159.896 12.7393 166.509 17.6152 171.385C22.4912 176.261 29.1044 179 36 179H60.4895L16.0258 232.356Z" fill="white" stroke="#FF3E00" stroke-width="20"/>
</svg>
