<svg width="331" height="263" viewBox="0 0 331 263" fill="none" xmlns="http://www.w3.org/2000/svg">
<path d="M263.013 57.6781L263.013 57.6784C261.431 59.5766 260.423 61.8862 260.107 64.3366C259.791 66.7871 260.18 69.2769 261.228 71.5144C262.276 73.7518 263.94 75.6443 266.025 76.97C268.11 78.2958 270.529 78.9999 273 79H313C316.448 79 319.754 77.6304 322.192 75.1924C324.63 72.7544 326 69.4478 326 66C326 62.5522 324.63 59.2456 322.192 56.8076C319.754 54.3696 316.448 53 313 53H300.755L322.987 26.3219L322.987 26.3216C324.569 24.4234 325.577 22.1138 325.893 19.6633C326.209 17.2129 325.82 14.7231 324.772 12.4857C323.724 10.2482 322.06 8.35573 319.975 7.02996C317.89 5.7042 315.471 5.00005 313 5H313H273C269.552 5 266.246 6.36964 263.808 8.80761C261.37 11.2456 260 14.5522 260 18C260 21.4478 261.37 24.7544 263.808 27.1924C266.246 29.6304 269.552 31 273 31H285.245L263.013 57.6781Z" fill="white" stroke="#FF3E00" stroke-width="10"/>
<path d="M152.807 111.483L152.807 111.484C150.808 113.882 149.535 116.801 149.135 119.898C148.736 122.995 149.227 126.141 150.551 128.969L155.079 126.848L150.551 128.969C151.876 131.796 153.979 134.188 156.614 135.863C159.248 137.539 162.306 138.429 165.428 138.429H222.571C226.929 138.429 231.107 136.698 234.188 133.617C237.269 130.536 239 126.357 239 122C239 117.643 237.269 113.464 234.188 110.383C231.107 107.302 226.929 105.571 222.571 105.571H200.504L235.193 63.9452L235.193 63.9449C237.191 61.5461 238.465 58.6273 238.865 55.5306C239.264 52.4339 238.773 49.2874 237.449 46.4599C236.124 43.6323 234.021 41.2408 231.386 39.5653C228.752 37.8899 225.694 37.0001 222.572 37H165.429C161.071 37 156.893 38.7309 153.812 41.8118L153.812 41.8118C150.731 44.8928 149 49.0714 149 53.4286C149 57.7857 150.731 61.9644 153.812 65.0453C156.893 68.1263 161.071 69.8571 165.429 69.8571H187.496L152.807 111.483Z" fill="white" stroke="#FF3E00" stroke-width="10"/>
<path d="M9.8669 223.557L9.86664 223.557C7.31176 226.624 5.68361 230.355 5.17293 234.313C4.66225 238.271 5.29021 242.293 6.98321 245.908C8.67621 249.522 11.3641 252.579 14.7321 254.721C18.1001 256.862 22.0087 258 25.9999 258H106C111.57 258 116.911 255.788 120.849 251.849C124.788 247.911 127 242.57 127 237C127 231.43 124.788 226.089 120.849 222.151C116.911 218.212 111.57 216 106 216H70.8353L122.133 154.443L122.133 154.443C124.688 151.376 126.316 147.645 126.827 143.687C127.338 139.729 126.71 135.707 125.017 132.092C123.324 128.478 120.636 125.421 117.268 123.279C113.9 121.138 109.991 120 106 120H26C20.4305 120 15.089 122.212 11.1508 126.151C7.2125 130.089 5 135.43 5 141C5 146.57 7.2125 151.911 11.1508 155.849C15.089 159.788 20.4305 162 26 162H61.1647L9.8669 223.557Z" fill="white" stroke="#FF3E00" stroke-width="10"/>
</svg>
