<svg width="300" height="300" viewBox="0 0 300 300" fill="none" xmlns="http://www.w3.org/2000/svg">
<g clip-path="url(#clip0)">
<path d="M176.088 287.714L124.013 236.936L235.848 122.731L289.763 175.571L176.088 287.714Z" fill="#6FCF97"/>
<path d="M176.309 63.2081L124.425 10.2312L10.9687 122.612C-3.65625 137.237 -3.65625 160.947 10.9687 175.589L122.719 288.072L175.559 238.64L90.4172 149.101L176.31 63.2081H176.309Z" fill="#019833"/>
<path d="M289.014 123.481L176.514 10.9811C161.872 -3.66035 138.128 -3.66035 123.486 10.9811C108.844 25.6236 108.844 49.3682 123.486 64.0107L235.986 176.511C250.628 191.152 274.372 191.152 289.014 176.511C303.656 161.868 303.656 138.124 289.014 123.482V123.481Z" fill="#6FCF97"/>
<path d="M149.139 300.004C169.379 300.004 185.787 283.596 185.787 263.356C185.787 243.116 169.379 226.708 149.139 226.708C128.899 226.708 112.491 243.116 112.491 263.356C112.491 283.596 128.899 300.004 149.139 300.004Z" fill="#019833"/>
</g>
<defs>
<clipPath id="clip0">
<rect width="300" height="300" fill="white"/>
</clipPath>
</defs>
</svg>
