<svg width="300" height="300" viewBox="0 0 300 300" fill="none" xmlns="http://www.w3.org/2000/svg">
<path d="M300 147.753C300 229.355 232.843 295.507 150 295.507C67.1573 295.507 0 229.355 0 147.753C0 66.1515 67.1573 0 150 0C232.843 0 300 66.1515 300 147.753Z" fill="#019833"/>
<path fill-rule="evenodd" clip-rule="evenodd" d="M65.8345 60.1383H33.424C27.4382 60.1383 25.928 68.445 31.5303 70.5532C32.6416 70.9714 33.5833 71.7456 34.2087 72.7549L37.3383 77.8063C37.4876 78.0473 37.5623 78.1678 37.6315 78.2914C37.6956 78.4059 37.7562 78.5223 37.8133 78.6406C37.8748 78.7682 37.9307 78.8985 38.0425 79.1592L50.2678 107.661L110.37 273.134C113.338 281.305 114.822 285.391 116.96 286.553C118.895 287.606 121.233 287.593 123.157 286.521C125.283 285.336 126.724 281.235 129.607 273.034L172.002 152.419H243.769C246.615 152.419 248.038 152.419 249.222 151.928C250.311 151.475 251.254 150.731 251.949 149.778C252.703 148.742 253.036 147.358 253.7 144.591L253.7 144.591L253.7 144.591L270.957 72.7377C271.979 68.4842 272.489 66.3575 271.976 64.681C271.506 63.1469 270.479 61.8442 269.097 61.0291C267.587 60.1383 265.4 60.1383 261.025 60.1383H168.954C166.272 60.1383 164.931 60.1383 163.796 60.5862C162.75 60.9986 161.83 61.6783 161.129 62.5574C160.368 63.512 159.975 64.7941 159.189 67.3584L129.259 164.979C126.513 173.934 125.141 178.411 122.996 179.678C121.057 180.823 118.661 180.869 116.679 179.8C114.487 178.617 112.942 174.197 109.851 165.356L75.4651 66.9821C74.6131 64.5447 74.1871 63.326 73.4247 62.4216C72.7223 61.5885 71.8196 60.9478 70.8014 60.5596C69.6961 60.1383 68.4089 60.1383 65.8345 60.1383ZM231.896 108.619C230.109 115.775 223.68 120.795 216.304 120.795H180.996L184.32 106.641C184.89 104.211 185.176 102.996 185.549 101.947C188.114 94.7383 194.567 89.625 202.171 88.7757C203.278 88.6521 204.526 88.6521 207.022 88.6521H216.304C226.759 88.6521 234.43 98.4761 231.896 108.619V108.619Z" fill="white"/>
</svg>
